<svg xmlns="http://www.w3.org/2000/svg" width="253.925" height="168.64" viewBox="0 0 253.925 168.64">
  <g id="Hiring-pana" transform="translate(-66.573 -50.506)">
    <g id="freepik--background-complete--inject-5" transform="translate(66.573 50.506)">
      <g id="Group_458805" data-name="Group 458805" transform="translate(237.818 81.512)" opacity="0.29">
        <path id="Path_10008" data-name="Path 10008" d="M654.36,251.97H658.7l-4.317.307Z" transform="translate(-654.36 -251.97)" fill="#e0e0e0"/>
      </g>
      <rect id="Rectangle_4159" data-name="Rectangle 4159" width="20.683" height="66.945" transform="translate(215.682 82.73)" fill="#f5f5f5"/>
      <path id="Path_10020" data-name="Path 10020" d="M622.447,267.414a.579.579,0,1,1-.574-.575A.579.579,0,0,1,622.447,267.414Z" transform="translate(-396.852 -179.311)" fill="#fafafa"/>
      <path id="Path_10021" data-name="Path 10021" d="M622.447,307.559a.579.579,0,1,1-.574-.579A.578.578,0,0,1,622.447,307.559Z" transform="translate(-396.852 -203.211)" fill="#fafafa"/>
      <path id="Path_10022" data-name="Path 10022" d="M622.447,347.7a.574.574,0,1,1-.167-.409A.578.578,0,0,1,622.447,347.7Z" transform="translate(-396.852 -227.11)" fill="#fafafa"/>
      <path id="Path_10023" data-name="Path 10023" d="M622.447,387.845a.579.579,0,1,1-.574-.574A.579.579,0,0,1,622.447,387.845Z" transform="translate(-396.852 -251.016)" fill="#fafafa"/>
      <g id="Group_458847" data-name="Group 458847" transform="translate(215.682 69.576)">
        <path id="Path_10002" data-name="Path 10002" d="M654.216,250.388l-.316-3.548,14.606,1.076v2.472Z" transform="translate(-631.951 -236.98)" fill="#fafafa"/>
        <path id="Path_10003" data-name="Path 10003" d="M655.91,243.953V241.89h13.578l-.271,3.043Z" transform="translate(-633.147 -234.033)" fill="#fafafa"/>
        <path id="Path_10004" data-name="Path 10004" d="M652.6,237.19l.279,1.9h13.408v-1.9Z" transform="translate(-631.177 -231.234)" fill="#fafafa"/>
        <g id="Group_458802" data-name="Group 458802" transform="translate(22.763 7.857)" opacity="0.29">
          <path id="Path_10005" data-name="Path 10005" d="M655.91,241.89v.445l13.109-.445Z" transform="translate(-655.91 -241.89)" fill="#e0e0e0"/>
        </g>
        <g id="Group_458803" data-name="Group 458803" transform="translate(22.763 9.921)" opacity="0.29">
          <path id="Path_10006" data-name="Path 10006" d="M655.91,246.99l13.307.979.044-.49Z" transform="translate(-655.91 -246.99)" fill="#e0e0e0"/>
        </g>
        <g id="Group_458804" data-name="Group 458804" transform="translate(30.078 8.828)" opacity="0.29">
          <path id="Path_10007" data-name="Path 10007" d="M673.99,244.581l2.3-.291,3.492.291Z" transform="translate(-673.99 -244.29)" fill="#e0e0e0"/>
        </g>
        <g id="Group_458806" data-name="Group 458806" transform="translate(26.177 6.627)" opacity="0.29">
          <path id="Path_10009" data-name="Path 10009" d="M664.35,239.129l8.934-.279C673.292,239.064,664.35,239.129,664.35,239.129Z" transform="translate(-664.35 -238.85)" fill="#e0e0e0"/>
        </g>
        <rect id="Rectangle_4156" data-name="Rectangle 4156" width="2.039" height="15.266" transform="translate(4.329 2.039) rotate(-90)" fill="#e0e0e0"/>
        <path id="Path_10010" data-name="Path 10010" d="M615.357,222.68a4.943,4.943,0,0,1,0,1.91,4.742,4.742,0,0,1,0-1.91Z" transform="translate(-608.944 -222.595)" fill="#fafafa"/>
        <path id="Path_10011" data-name="Path 10011" d="M614.537,222.57a4.961,4.961,0,0,1,0,1.914A4.764,4.764,0,0,1,614.537,222.57Z" transform="translate(-608.456 -222.53)" fill="#fafafa"/>
        <path id="Path_10012" data-name="Path 10012" d="M645.027,222.68a4.742,4.742,0,0,1,0,1.91,4.742,4.742,0,0,1,0-1.91Z" transform="translate(-626.61 -222.595)" fill="#fafafa"/>
        <path id="Path_10013" data-name="Path 10013" d="M644.207,222.57a4.764,4.764,0,0,1,0,1.914A4.763,4.763,0,0,1,644.207,222.57Z" transform="translate(-626.121 -222.53)" fill="#fafafa"/>
        <path id="Path_10014" data-name="Path 10014" d="M627.929,225c0,.053-1.748.1-3.9.1s-3.9-.045-3.9-.1,1.748-.1,3.9-.1A38.254,38.254,0,0,1,627.929,225Z" transform="translate(-611.838 -223.917)" fill="#fafafa"/>
        <rect id="Rectangle_4157" data-name="Rectangle 4157" width="4.078" height="15.266" transform="translate(4.269 13.259) rotate(-90)" fill="#e0e0e0"/>
        <path id="Path_10015" data-name="Path 10015" d="M625.707,248.617l-.085.045c-.057.032-.142.069-.255.117a4.226,4.226,0,0,1-1.032.3,2.687,2.687,0,0,1-1.679-.239,2.25,2.25,0,0,1-.809-.72,1.687,1.687,0,0,1-.275-1.177,1.242,1.242,0,0,1,.279-.607.809.809,0,0,1,.643-.291.935.935,0,0,1,.647.348,1.283,1.283,0,0,1,.3.7,1.845,1.845,0,0,1-.526,1.444,2.326,2.326,0,0,1-1.469.72,3.9,3.9,0,0,1-1.7-.214,3.127,3.127,0,0,1-1.485-.987,1.618,1.618,0,0,1-.348-.878,1.153,1.153,0,0,1,.324-.918.748.748,0,0,1,.477-.21.9.9,0,0,1,.5.142,1.331,1.331,0,0,1,.562.809,1.93,1.93,0,0,1-.6,1.8,3.042,3.042,0,0,1-1.719.7,4.247,4.247,0,0,1-1.78-.178,2.427,2.427,0,0,1-1.355-1.052,1.808,1.808,0,0,1-.17-1.618.858.858,0,0,1,.623-.526.98.98,0,0,1,.769.186,1.279,1.279,0,0,1,.364,1.376,2.371,2.371,0,0,1-.773,1.08,3.384,3.384,0,0,1-4.616-.206,1.918,1.918,0,0,1-.182-.214.363.363,0,0,1-.053-.077,3.911,3.911,0,0,0,1.133.866,3.31,3.31,0,0,0,3.641-.473,2.229,2.229,0,0,0,.712-1.024,1.125,1.125,0,0,0-.316-1.214.809.809,0,0,0-.643-.15.68.68,0,0,0-.5.433,1.618,1.618,0,0,0,.166,1.461,2.281,2.281,0,0,0,1.262.971,4.067,4.067,0,0,0,1.7.162,2.833,2.833,0,0,0,1.618-.651,1.736,1.736,0,0,0,.542-1.618,1.149,1.149,0,0,0-.473-.7.587.587,0,0,0-.745.048.944.944,0,0,0-.267.761,1.42,1.42,0,0,0,.308.781,2.977,2.977,0,0,0,1.4.943,3.755,3.755,0,0,0,1.618.206,2.157,2.157,0,0,0,1.368-.655,1.683,1.683,0,0,0,.49-1.315.971.971,0,0,0-.809-.91.647.647,0,0,0-.53.239,1.073,1.073,0,0,0-.251.534,1.546,1.546,0,0,0,.247,1.084,2.1,2.1,0,0,0,.744.7,2.649,2.649,0,0,0,1.618.259,4.944,4.944,0,0,0,1.032-.259C625.586,248.661,625.7,248.609,625.707,248.617Z" transform="translate(-605.979 -236.503)" fill="#fafafa"/>
        <rect id="Rectangle_4158" data-name="Rectangle 4158" width="7.076" height="13.902" transform="translate(5.628 9.172) rotate(-90)" fill="#ebebeb"/>
        <path id="Path_10016" data-name="Path 10016" d="M619.11,228.25a60.447,60.447,0,0,1,0,6.85,60.484,60.484,0,0,1,0-6.85Z" transform="translate(-611.172 -225.911)" fill="#e0e0e0"/>
        <path id="Path_10017" data-name="Path 10017" d="M621.72,228a61.431,61.431,0,0,1,0,6.761,58.887,58.887,0,0,1,0-6.761Z" transform="translate(-612.726 -225.763)" fill="#e0e0e0"/>
        <path id="Path_10018" data-name="Path 10018" d="M643.84,227.47a65.436,65.436,0,0,1,0,7.125,65.354,65.354,0,0,1,0-7.125Z" transform="translate(-625.896 -225.447)" fill="#e0e0e0"/>
        <path id="Path_10019" data-name="Path 10019" d="M640.84,227.71a62.066,62.066,0,0,1,0,6.939,61.988,61.988,0,0,1,0-6.939Z" transform="translate(-624.11 -225.59)" fill="#e0e0e0"/>
        <rect id="Rectangle_4160" data-name="Rectangle 4160" width="17.56" height="66.921" transform="translate(20.683 13.166)" fill="#e0e0e0"/>
        <rect id="Rectangle_4161" data-name="Rectangle 4161" width="16.593" height="14.42" transform="translate(1.614 15.864)" fill="#e0e0e0"/>
        <rect id="Rectangle_4162" data-name="Rectangle 4162" width="16.593" height="14.42" transform="translate(1.614 31.919)" fill="#e0e0e0"/>
        <rect id="Rectangle_4163" data-name="Rectangle 4163" width="16.593" height="14.42" transform="translate(1.614 47.973)" fill="#e0e0e0"/>
        <rect id="Rectangle_4164" data-name="Rectangle 4164" width="16.593" height="14.42" transform="translate(1.614 64.032)" fill="#e0e0e0"/>
        <rect id="Rectangle_4165" data-name="Rectangle 4165" width="2.391" height="13.429" transform="translate(0 80.098)" fill="#e0e0e0"/>
        <rect id="Rectangle_4166" data-name="Rectangle 4166" width="2.391" height="13.429" transform="translate(18.211 80.098)" fill="#e0e0e0"/>
        <rect id="Rectangle_4167" data-name="Rectangle 4167" width="2.391" height="13.429" transform="translate(35.597 80.098)" fill="#e0e0e0"/>
      </g>
      <rect id="Rectangle_4168" data-name="Rectangle 4168" width="3.253" height="144.685" transform="matrix(1, -0.005, 0.005, 1, 0.001, 18.995)" fill="#e0e0e0"/>
      <rect id="Rectangle_4169" data-name="Rectangle 4169" width="3.253" height="144.685" transform="matrix(1, -0.005, 0.005, 1, 7.793, 18.949)" fill="#e0e0e0"/>
      <rect id="Rectangle_4170" data-name="Rectangle 4170" width="3.253" height="144.685" transform="matrix(1, -0.005, 0.005, 1, 75.897, 18.58)" fill="#e0e0e0"/>
      <rect id="Rectangle_4171" data-name="Rectangle 4171" width="3.253" height="144.685" transform="matrix(1, -0.005, 0.005, 1, 83.697, 18.538)" fill="#e0e0e0"/>
      <rect id="Rectangle_4172" data-name="Rectangle 4172" width="86.948" height="3.302" transform="matrix(1, -0.005, 0.005, 1, 0, 18.989)" fill="#e0e0e0"/>
      <rect id="Rectangle_4173" data-name="Rectangle 4173" width="86.948" height="0.987" transform="matrix(1, -0.005, 0.005, 1, 0.161, 48.698)" fill="#e0e0e0"/>
      <rect id="Rectangle_4174" data-name="Rectangle 4174" width="86.948" height="0.987" transform="matrix(1, -0.005, 0.005, 1, 0.312, 76.695)" fill="#e0e0e0"/>
      <rect id="Rectangle_4175" data-name="Rectangle 4175" width="86.948" height="0.987" transform="matrix(1, -0.005, 0.005, 1, 0.464, 104.692)" fill="#e0e0e0"/>
      <rect id="Rectangle_4176" data-name="Rectangle 4176" width="86.948" height="0.987" transform="matrix(1, -0.005, 0.005, 1, 0.615, 132.693)" fill="#e0e0e0"/>
      <rect id="Rectangle_4177" data-name="Rectangle 4177" width="15.403" height="16.338" transform="matrix(1, -0.005, 0.005, 1, 35.828, 116.161)" fill="#ebebeb"/>
      <rect id="Rectangle_4178" data-name="Rectangle 4178" width="15.403" height="16.338" transform="matrix(1, -0.005, 0.005, 1, 51.153, 116.078)" fill="#f5f5f5"/>
      <path id="Path_10024" data-name="Path 10024" d="M155.011,348.067c10.232.1,20.5,0,30.75-.146a.121.121,0,0,0,0-.239c-10.232-.057-20.5-.028-30.75.182a.1.1,0,0,0,0,.2Z" transform="translate(-119.169 -227.43)" fill="#e0e0e0"/>
      <rect id="Rectangle_4179" data-name="Rectangle 4179" width="11.28" height="11.968" transform="matrix(1, -0.005, 0.005, 1, 35.491, 54.632)" fill="#ebebeb"/>
      <rect id="Rectangle_4180" data-name="Rectangle 4180" width="11.28" height="11.968" transform="matrix(1, -0.005, 0.005, 1, 46.718, 54.571)" fill="#f5f5f5"/>
      <path id="Path_10025" data-name="Path 10025" d="M154.2,193.192q11.244.089,22.508-.105a.121.121,0,0,0,0-.239c-7.5-.04-15.015,0-22.512.138a.105.105,0,0,0,0,.206Z" transform="translate(-118.693 -135.248)" fill="#e0e0e0"/>
      <rect id="Rectangle_4181" data-name="Rectangle 4181" width="20.497" height="9.751" transform="matrix(1, -0.005, 0.005, 1, 28.458, 66.452)" fill="#ebebeb"/>
      <rect id="Rectangle_4182" data-name="Rectangle 4182" width="20.497" height="9.751" transform="matrix(1, -0.005, 0.005, 1, 48.857, 66.341)" fill="#f5f5f5"/>
      <path id="Path_10026" data-name="Path 10026" d="M136.809,220.753c13.615.154,27.278,0,40.893-.2a.121.121,0,1,0,0-.243c-13.619-.069-27.282-.061-40.9.239a.105.105,0,0,0,0,.206Z" transform="translate(-108.339 -151.585)" fill="#e0e0e0"/>
      <rect id="Rectangle_4183" data-name="Rectangle 4183" width="5.146" height="20.076" transform="matrix(1, -0.005, 0.005, 1, 29.014, 28.518)" fill="#ebebeb"/>
      <rect id="Rectangle_4184" data-name="Rectangle 4184" width="5.146" height="14.594" transform="matrix(1, -0.005, 0.005, 1, 23.8, 33.976)" fill="#e0e0e0"/>
      <rect id="Rectangle_4185" data-name="Rectangle 4185" width="7.999" height="16.269" transform="matrix(1, -0.005, 0.005, 1, 34.249, 32.252)" fill="#e0e0e0"/>
      <rect id="Rectangle_4186" data-name="Rectangle 4186" width="2.541" height="16.269" transform="matrix(1, -0.005, 0.005, 1, 42.126, 32.206)" fill="#ebebeb"/>
      <rect id="Rectangle_4187" data-name="Rectangle 4187" width="2.541" height="12.51" transform="matrix(1, -0.005, 0.005, 1, 44.687, 35.954)" fill="#e0e0e0"/>
      <rect id="Rectangle_4188" data-name="Rectangle 4188" width="5.146" height="18.822" transform="matrix(0.925, 0.379, -0.379, 0.925, 28.317, 85.323)" fill="#e0e0e0"/>
      <rect id="Rectangle_4189" data-name="Rectangle 4189" width="5.146" height="20.076" transform="matrix(1, -0.005, 0.005, 1, 32.388, 84.564)" fill="#ebebeb"/>
      <rect id="Rectangle_4190" data-name="Rectangle 4190" width="7.999" height="16.269" transform="matrix(1, -0.005, 0.005, 1, 40.196, 88.289)" fill="#e0e0e0"/>
      <rect id="Rectangle_4191" data-name="Rectangle 4191" width="1.752" height="22.293" transform="matrix(1, -0.005, 0.005, 1, 38.412, 82.27)" fill="#ebebeb"/>
      <rect id="Rectangle_4192" data-name="Rectangle 4192" width="0.874" height="18.822" transform="matrix(1, -0.005, 0.005, 1, 37.557, 85.75)" fill="#f5f5f5"/>
      <rect id="Rectangle_4193" data-name="Rectangle 4193" width="0.874" height="18.822" transform="matrix(-0.005, -1, 1, -0.005, 48.356, 104.551)" fill="#f5f5f5"/>
      <rect id="Rectangle_4194" data-name="Rectangle 4194" width="20.517" height="5.203" transform="matrix(1, -0.005, 0.005, 1, 48.254, 98.478)" fill="#ebebeb"/>
      <rect id="Rectangle_4195" data-name="Rectangle 4195" width="16.475" height="5.203" transform="matrix(1, -0.005, 0.005, 1, 48.222, 93.234)" fill="#e0e0e0"/>
      <circle id="Ellipse_156" data-name="Ellipse 156" cx="12.174" cy="12.174" r="12.174" transform="translate(180.923 9.365) rotate(-22.62)" fill="#e0e0e0"/>
      <path id="Path_10027" data-name="Path 10027" d="M558.351,80.194a1.578,1.578,0,0,1-.429.04l-1.181.032c-1.007,0-2.4.028-3.985.032h-.105V79.4c0-1.764,0-3.358.032-4.515,0-.542.024-1,.032-1.368a2.509,2.509,0,0,1,.04-.5,2.169,2.169,0,0,1,.04.5c0,.364,0,.809.036,1.368,0,1.157.028,2.751.028,4.515v.809l-.105-.105c1.582,0,2.978,0,3.985.036l1.181.032a2.023,2.023,0,0,1,.429.016Z" transform="translate(-355.984 -63.911)" fill="#fafafa"/>
      <path id="Path_10028" data-name="Path 10028" d="M552.828,64.68a4.83,4.83,0,0,1,0,2.043,5.015,5.015,0,0,1,0-2.043Z" transform="translate(-356.02 -58.945)" fill="#fafafa"/>
      <path id="Path_10029" data-name="Path 10029" d="M564.613,68.735c.041.04-.247.4-.639.785s-.748.68-.789.639.247-.4.639-.785S564.568,68.694,564.613,68.735Z" transform="translate(-362.254 -61.357)" fill="#fafafa"/>
      <path id="Path_10030" data-name="Path 10030" d="M572.219,77.5c.028.053-.352.3-.809.583a3.016,3.016,0,0,1-.894.461c-.036-.045.3-.352.785-.643A2.143,2.143,0,0,1,572.219,77.5Z" transform="translate(-366.62 -66.578)" fill="#fafafa"/>
      <path id="Path_10031" data-name="Path 10031" d="M575.328,90.336a9.306,9.306,0,0,1-2.788,0A9.306,9.306,0,0,1,575.328,90.336Z" transform="translate(-367.827 -74.158)" fill="#fafafa"/>
      <path id="Path_10032" data-name="Path 10032" d="M527.754,89.845a8.3,8.3,0,0,1-2.634,0A8.3,8.3,0,0,1,527.754,89.845Z" transform="translate(-339.593 -73.866)" fill="#fafafa"/>
      <path id="Path_10033" data-name="Path 10033" d="M531.934,99.71a4.189,4.189,0,0,1-.971.927,4.5,4.5,0,0,1-1.113.761,4.346,4.346,0,0,1,.979-.927A4.4,4.4,0,0,1,531.934,99.71Z" transform="translate(-342.409 -79.802)" fill="#fafafa"/>
      <path id="Path_10034" data-name="Path 10034" d="M541.3,107.19a5.932,5.932,0,0,1-.651,1.19,5.659,5.659,0,0,1-.744,1.133,3.683,3.683,0,0,1,.563-1.242A3.639,3.639,0,0,1,541.3,107.19Z" transform="translate(-348.393 -84.256)" fill="#fafafa"/>
      <path id="Path_10035" data-name="Path 10035" d="M552.827,112.767a9.15,9.15,0,0,1,0-2.767,8.822,8.822,0,0,1,0,2.767Z" transform="translate(-356.02 -85.929)" fill="#fafafa"/>
      <path id="Path_10036" data-name="Path 10036" d="M564.788,109.571a3.391,3.391,0,0,1-1.165-.769,3.44,3.44,0,0,1-.922-1.052,7.441,7.441,0,0,1,1.06.894A7.044,7.044,0,0,1,564.788,109.571Z" transform="translate(-361.968 -84.589)" fill="#fafafa"/>
      <path id="Path_10037" data-name="Path 10037" d="M572.262,102.162a3.642,3.642,0,0,1-.943-.809,3.573,3.573,0,0,1-.809-.943,3.778,3.778,0,0,1,.943.809A3.7,3.7,0,0,1,572.262,102.162Z" transform="translate(-366.618 -80.219)" fill="#fafafa"/>
      <path id="Path_10038" data-name="Path 10038" d="M532.456,78.525c-.04.045-.4-.263-.833-.684a2.951,2.951,0,0,1-.688-.833,3.516,3.516,0,0,1,.838.684C532.205,78.108,532.5,78.485,532.456,78.525Z" transform="translate(-343.053 -66.284)" fill="#fafafa"/>
      <path id="Path_10039" data-name="Path 10039" d="M541.116,69.523c-.041.04-.4-.259-.809-.668a3.033,3.033,0,0,1-.672-.809,2.863,2.863,0,0,1,.809.668C540.849,69.123,541.156,69.483,541.116,69.523Z" transform="translate(-348.233 -60.948)" fill="#fafafa"/>
      <rect id="Rectangle_4196" data-name="Rectangle 4196" width="35.406" height="23.281" transform="translate(103.107 43.751)" fill="#e0e0e0"/>
      <rect id="Rectangle_4197" data-name="Rectangle 4197" width="32.926" height="21.286" transform="translate(104.341 44.706)" fill="#fafafa"/>
      <rect id="Rectangle_4198" data-name="Rectangle 4198" width="10.742" height="5.859" transform="translate(115.431 52.462)" fill="#e0e0e0"/>
    </g>
    <g id="freepik--Floor--inject-5" transform="translate(82.93 213.674)">
      <path id="Path_10040" data-name="Path 10040" d="M342.44,453.9c0,.057-52.7.105-117.706.105S107,453.952,107,453.9s52.695-.105,117.738-.105S342.44,453.839,342.44,453.9Z" transform="translate(-107 -453.79)" fill="#263238"/>
    </g>
    <g id="freepik--Desk--inject-5" transform="translate(173.095 131.14)">
      <rect id="Rectangle_4199" data-name="Rectangle 4199" width="42.835" height="8.302" transform="translate(42.256 22.945)" fill="#455a64"/>
      <rect id="Rectangle_4200" data-name="Rectangle 4200" width="25.364" height="1.234" transform="translate(40.929 17.831) rotate(180)" fill="#263238"/>
      <path id="Path_10041" data-name="Path 10041" d="M412.236,267.627l4.758-17.827H397.189l-4.309,17.827Z" transform="translate(-367.378 -249.8)" fill="#263238"/>
      <path id="Path_10042" data-name="Path 10042" d="M395.81,267.488H413.5l4.119-15.658H399.84Z" transform="translate(-369.123 -251.009)" fill="#e0e0e0"/>
      <rect id="Rectangle_4201" data-name="Rectangle 4201" width="1.283" height="61.159" transform="translate(5.531 21.48)" fill="#455a64"/>
      <rect id="Rectangle_4202" data-name="Rectangle 4202" width="1.283" height="60.985" transform="translate(6.813 21.654)" fill="#263238"/>
      <rect id="Rectangle_4203" data-name="Rectangle 4203" width="1.283" height="61.159" transform="translate(84.452 21.48)" fill="#455a64"/>
      <rect id="Rectangle_4204" data-name="Rectangle 4204" width="1.283" height="60.985" transform="translate(85.73 21.654)" fill="#263238"/>
      <rect id="Rectangle_4205" data-name="Rectangle 4205" width="97.302" height="5.017" transform="translate(0 17.928)" fill="#455a64"/>
      <path id="Path_10043" data-name="Path 10043" d="M489.13,313.945a.955.955,0,1,1-.955-.955A.955.955,0,0,1,489.13,313.945Z" transform="translate(-423.548 -287.423)" fill="#263238"/>
    </g>
    <g id="freepik--Chair--inject-5" transform="translate(154.321 135.413)">
      <path id="Path_10044" data-name="Path 10044" d="M292.611,300.9l-8.719-35.479a4.046,4.046,0,0,1,3.925-5h20.606a4.046,4.046,0,0,1,3.908,3.022l9.164,35.277a4.046,4.046,0,0,1-3.868,5.053l-21.039.2A4.046,4.046,0,0,1,292.611,300.9Z" transform="translate(-283.645 -260.396)" fill="#38a8ff"/>
      <path id="Path_10045" data-name="Path 10045" d="M287.746,260.38a4.3,4.3,0,0,0-4.175,5.312l9.286,38.275h6.923Z" transform="translate(-283.449 -260.372)" fill="#ffc727"/>
      <rect id="Rectangle_4206" data-name="Rectangle 4206" width="28.225" height="11.09" rx="5.545" transform="translate(18.952 32.522)" fill="#38a8ff"/>
      <g id="Group_458807" data-name="Group 458807" opacity="0.744">
        <path id="Path_10046" data-name="Path 10046" d="M306.281,303.964l-2.492-11.09h-7.064l-8.978-32.514a4.3,4.3,0,0,0-4.175,5.312l9.286,38.275h.316Z" transform="translate(-283.449 -260.36)" fill="#000027"/>
      </g>
      <path id="Path_10047" data-name="Path 10047" d="M342.948,340.585c0,.057-5.826.105-13.012.105s-13.016-.049-13.016-.105,5.826-.105,13.016-.105S342.948,340.524,342.948,340.585Z" transform="translate(-303.378 -308.064)" fill="#e0e0e0"/>
      <path id="Path_10048" data-name="Path 10048" d="M320.733,294.851a1.108,1.108,0,0,0,0,.631.781.781,0,0,0,.453.445.655.655,0,0,0,.692-.239.664.664,0,0,0,.113-.724.764.764,0,0,0-.522-.364,1.084,1.084,0,0,0-.619.093.318.318,0,0,1,.129-.138.809.809,0,0,1,.514-.105.849.849,0,1,1-.9,1.064.809.809,0,0,1,0-.526A1.076,1.076,0,0,1,320.733,294.851Z" transform="translate(-305.54 -280.653)" fill="#e0e0e0"/>
      <path id="Path_10049" data-name="Path 10049" d="M319.957,302.028a1.488,1.488,0,0,1-.231-.708,3.556,3.556,0,0,1,.178-1.788,3.6,3.6,0,0,1,1.024-1.477,1.619,1.619,0,0,1,.635-.4c.02.028-.218.182-.534.5a3.921,3.921,0,0,0-1.157,3.14C319.908,301.749,319.989,302.02,319.957,302.028Z" transform="translate(-305.023 -282.563)" fill="#e0e0e0"/>
      <path id="Path_10050" data-name="Path 10050" d="M316.29,288.17a6.312,6.312,0,0,0,.635,1.683,6.158,6.158,0,0,0,1.242,1.3c0,.024-.214-.04-.5-.231a3.169,3.169,0,0,1-.922-.955,3.238,3.238,0,0,1-.465-1.246A1.044,1.044,0,0,1,316.29,288.17Z" transform="translate(-302.978 -276.918)" fill="#e0e0e0"/>
      <path id="Path_10051" data-name="Path 10051" d="M313.9,296.172c.032-.053.579.283,1.331.437s1.388.077,1.4.142a2.274,2.274,0,0,1-1.44.065A2.233,2.233,0,0,1,313.9,296.172Z" transform="translate(-301.58 -281.679)" fill="#e0e0e0"/>
      <path id="Path_10052" data-name="Path 10052" d="M347.423,294.85a1.109,1.109,0,0,0,0,.631.781.781,0,0,0,.453.445.656.656,0,0,0,.692-.239.664.664,0,0,0,.113-.724.769.769,0,0,0-.518-.364,1.092,1.092,0,0,0-.623.093.35.35,0,0,1,.134-.138.781.781,0,0,1,.51-.105.849.849,0,1,1-.9,1.064.809.809,0,0,1,0-.526C347.362,294.89,347.415,294.846,347.423,294.85Z" transform="translate(-321.431 -280.653)" fill="#e0e0e0"/>
      <path id="Path_10053" data-name="Path 10053" d="M346.6,302.028a1.546,1.546,0,0,1-.231-.708,3.573,3.573,0,0,1,1.214-3.265,1.586,1.586,0,0,1,.631-.4c0,.028-.218.182-.53.5a3.9,3.9,0,0,0-1.161,3.14A6.723,6.723,0,0,1,346.6,302.028Z" transform="translate(-320.886 -282.563)" fill="#e0e0e0"/>
      <path id="Path_10054" data-name="Path 10054" d="M342.942,288.17a6.313,6.313,0,0,0,.635,1.683,6.159,6.159,0,0,0,1.242,1.3c0,.024-.214-.04-.5-.231a3.169,3.169,0,0,1-.922-.955,3.237,3.237,0,0,1-.465-1.246A1.1,1.1,0,0,1,342.942,288.17Z" transform="translate(-318.848 -276.918)" fill="#e0e0e0"/>
      <path id="Path_10055" data-name="Path 10055" d="M340.55,296.172c.032-.053.579.283,1.331.437s1.388.077,1.4.142a2.261,2.261,0,0,1-1.436.065A2.236,2.236,0,0,1,340.55,296.172Z" transform="translate(-317.447 -281.679)" fill="#e0e0e0"/>
      <path id="Path_10056" data-name="Path 10056" d="M342.222,371.067H309.138a1.618,1.618,0,0,1-1.618-1.618h0a1.618,1.618,0,0,1,1.618-1.618h33.084a1.618,1.618,0,0,1,1.618,1.618h0A1.618,1.618,0,0,1,342.222,371.067Z" transform="translate(-297.781 -324.348)" fill="#263238"/>
      <path id="Path_10057" data-name="Path 10057" d="M309.256,375.83l-5.446,31.648H305.3l7.161-31.648Z" transform="translate(-295.572 -329.111)" fill="#263238"/>
      <path id="Path_10058" data-name="Path 10058" d="M340.48,375.83l-5.79,31.648h1.493l7.5-31.648Z" transform="translate(-313.958 -329.111)" fill="#263238"/>
      <path id="Path_10059" data-name="Path 10059" d="M379.374,375.83l6.457,31.648h-1.493L376.17,375.83Z" transform="translate(-338.655 -329.111)" fill="#263238"/>
    </g>
    <g id="freepik--character-2--inject-5" transform="translate(236.382 75.768)">
      <path id="Path_10060" data-name="Path 10060" d="M511.984,132.347a7.785,7.785,0,0,0-8.335,4.641,19.588,19.588,0,0,0-1.436,7.315,34.625,34.625,0,0,1-.833,7.437,27.364,27.364,0,0,0-1.016,3.763,4.158,4.158,0,0,0,1.056,3.6" transform="translate(-494.634 -124.455)" fill="#263238"/>
      <path id="Path_10061" data-name="Path 10061" d="M534.134,138.6c1.254,2.553.332,5.664.987,8.416a27.974,27.974,0,0,0,1.214,3.31,33.335,33.335,0,0,1,1.477,6.919,5.818,5.818,0,0,1-.239,3.492,3.6,3.6,0,0,1-3.237,1.756,4.633,4.633,0,0,1-4.091-2.691,9.144,9.144,0,0,1-.506-3.872,105.056,105.056,0,0,1,1.165-16.993" transform="translate(-512.148 -128.22)" fill="#263238"/>
      <path id="Path_10062" data-name="Path 10062" d="M566.481,168.671l-2.958-1.141a.716.716,0,0,0-.967.579c-.085.708-.546,2.618-1.04,1.946l-.036-.04a3.283,3.283,0,0,0-1.91-1.517.461.461,0,0,0-.113.833.817.817,0,0,1,.073.053,5.877,5.877,0,0,1,.809.939,3.278,3.278,0,0,1,.522,1.011c.121.4.214.753.279,1.048l-.178,1.97-3.641,9.876-6.38-6.644s-3.415,7.542-3.492,7.793c-.057.17,3.2,3.556,5.337,5.757a6.041,6.041,0,0,0,10.208-2.832l2.771-13.914h-.073l.291-1.011.931-3.86A.72.72,0,0,0,566.481,168.671Z" transform="translate(-522.696 -145.416)" fill="#ffbe9d"/>
      <path id="Path_10063" data-name="Path 10063" d="M553.9,391.414l.069-3.71-6.943-.174-.162,5.426.429.036c1.914.154,9.743.655,11.037.3C559.763,392.891,553.9,391.414,553.9,391.414Z" transform="translate(-522.345 -276.433)" fill="#33bff8"/>
      <g id="Group_458808" data-name="Group 458808" transform="translate(24.515 114.493)" opacity="0.5">
        <path id="Path_10064" data-name="Path 10064" d="M549.381,397.978a2.428,2.428,0,0,0-.849-1.505,2.351,2.351,0,0,0-1.618-.546l-.053,1.942Z" transform="translate(-546.86 -395.924)" fill="#fff"/>
      </g>
      <g id="Group_458809" data-name="Group 458809" transform="translate(24.515 115.807)" opacity="0.4">
        <path id="Path_10065" data-name="Path 10065" d="M556.76,399.17s2.055.647,1.788.983-8.2.129-11.689-.267v-.158l9.249.32S556.356,399.178,556.76,399.17Z" transform="translate(-546.86 -399.17)" fill="#fff"/>
      </g>
      <path id="Path_10066" data-name="Path 10066" d="M546.63,400.53a.345.345,0,0,0,.117,0l.344.032,1.262.085c1.064.069,2.537.138,4.163.182s3.1.053,4.171.04h0c-1.068,0-2.541-.024-4.167-.069s-3.1-.105-4.167-.154l-1.263-.061h-.344Z" transform="translate(-522.208 -284.173)" fill="#263238"/>
      <path id="Path_10067" data-name="Path 10067" d="M569.733,400.038a3.172,3.172,0,0,1,.255-.6,2.66,2.66,0,0,1,.441-.469.923.923,0,0,0-.514.4A.955.955,0,0,0,569.733,400.038Z" transform="translate(-535.961 -283.244)" fill="#263238"/>
      <path id="Path_10068" data-name="Path 10068" d="M564.745,398.069a1.528,1.528,0,0,0,.223-.263c.105-.158.178-.3.158-.307s-.121.105-.227.263S564.725,398.053,564.745,398.069Z" transform="translate(-532.992 -282.368)" fill="#263238"/>
      <path id="Path_10069" data-name="Path 10069" d="M563.368,397.577a1.182,1.182,0,0,0,.251-.158c.121-.1.21-.206.194-.223s-.125.053-.247.158S563.356,397.557,563.368,397.577Z" transform="translate(-532.174 -282.187)" fill="#263238"/>
      <path id="Path_10070" data-name="Path 10070" d="M562.54,396.434a.808.808,0,0,0,.36.057.784.784,0,0,0,.364-.028.809.809,0,0,0-.36-.057A.785.785,0,0,0,562.54,396.434Z" transform="translate(-531.681 -281.712)" fill="#263238"/>
      <path id="Path_10071" data-name="Path 10071" d="M562.27,395.34a1.012,1.012,0,0,0,.809.085,2.151,2.151,0,0,0-.4-.04A2.26,2.26,0,0,0,562.27,395.34Z" transform="translate(-531.521 -281.083)" fill="#263238"/>
      <path id="Path_10072" data-name="Path 10072" d="M565.37,396.516a1.185,1.185,0,0,0,.445,0,3.172,3.172,0,0,0,.477-.093,1.368,1.368,0,0,0,.275-.105.231.231,0,0,0,.113-.138.174.174,0,0,0-.061-.178.809.809,0,0,0-1.173.506.281.281,0,0,0,0,.121,1.31,1.31,0,0,1,.214-.376.809.809,0,0,1,.4-.239.692.692,0,0,1,.53.053c.069.053.04.134-.04.178a1.124,1.124,0,0,1-.251.1,2.883,2.883,0,0,1-.465.109C565.54,396.508,565.37,396.5,565.37,396.516Z" transform="translate(-533.366 -281.418)" fill="#263238"/>
      <path id="Path_10073" data-name="Path 10073" d="M564.82,396.2a.433.433,0,0,0,.061-.312.723.723,0,0,0-.113-.328.457.457,0,0,0-.368-.239.182.182,0,0,0-.142.2.477.477,0,0,0,.073.2,1.178,1.178,0,0,0,.2.275.681.681,0,0,0,.251.19,2.656,2.656,0,0,1-.206-.231,1.37,1.37,0,0,1-.182-.271c-.057-.1-.093-.267,0-.283s.226.105.291.2a.674.674,0,0,1,.117.291A1.549,1.549,0,0,1,564.82,396.2Z" transform="translate(-532.703 -281.071)" fill="#263238"/>
      <path id="Path_10074" data-name="Path 10074" d="M547.1,395.792s.2,0,.514.028a2.193,2.193,0,0,1,1.78,1.5,4.917,4.917,0,0,1,.117.5v-.142a1.689,1.689,0,0,0-.065-.376,2.112,2.112,0,0,0-1.833-1.538,1.677,1.677,0,0,0-.38,0C547.149,395.772,547.1,395.784,547.1,395.792Z" transform="translate(-522.488 -281.329)" fill="#263238"/>
      <path id="Path_10075" data-name="Path 10075" d="M548.887,388.75a13.547,13.547,0,0,0-.1,1.424,12.279,12.279,0,0,0,0,1.428,23.98,23.98,0,0,0,.109-2.852Z" transform="translate(-523.482 -277.159)" fill="#263238"/>
      <path id="Path_10076" data-name="Path 10076" d="M555.29,399.329a5.839,5.839,0,0,0,2.023.073c0-.024-.457,0-1.016-.028A10,10,0,0,0,555.29,399.329Z" transform="translate(-527.365 -283.454)" fill="#263238"/>
      <path id="Path_10077" data-name="Path 10077" d="M551.93,399.246s.032.1.077.2.065.2.089.2.04-.109,0-.231S551.958,399.23,551.93,399.246Z" transform="translate(-525.364 -283.407)" fill="#263238"/>
      <path id="Path_10078" data-name="Path 10078" d="M550.7,397.635a.407.407,0,0,0,.1.162c.073.073.138.125.158.109s-.028-.089-.1-.166S550.716,397.619,550.7,397.635Z" transform="translate(-524.632 -282.448)" fill="#263238"/>
      <path id="Path_10079" data-name="Path 10079" d="M548.9,396.817c0,.024.1.024.2.065s.174.093.194.077-.036-.113-.166-.158S548.9,396.8,548.9,396.817Z" transform="translate(-523.56 -281.941)" fill="#263238"/>
      <path id="Path_10080" data-name="Path 10080" d="M547.62,396.475c0,.02.032.057.089.081s.109.024.117,0-.028-.061-.085-.081S547.628,396.451,547.62,396.475Z" transform="translate(-522.798 -281.749)" fill="#263238"/>
      <path id="Path_10081" data-name="Path 10081" d="M601.544,335.868l-1.618-3.338-6.275,2.986,2.31,4.912.4-.162c1.776-.728,8.986-3.823,9.977-4.726C607.447,334.533,601.544,335.868,601.544,335.868Z" transform="translate(-550.204 -243.686)" fill="#33bff8"/>
      <g id="Group_458810" data-name="Group 458810" transform="translate(44.89 94.59)" opacity="0.5">
        <path id="Path_10082" data-name="Path 10082" d="M600.343,347.75a2.427,2.427,0,0,0-1.44-.959,2.343,2.343,0,0,0-1.683.243l.833,1.756Z" transform="translate(-597.22 -346.73)" fill="#fff"/>
      </g>
      <g id="Group_458811" data-name="Group 458811" transform="translate(45.687 91.486)" opacity="0.4">
        <path id="Path_10083" data-name="Path 10083" d="M607.767,339.2s2.128-.352,2.023.069-7.25,3.823-10.544,5.049l-.057-.146,8.42-3.9S607.411,339.387,607.767,339.2Z" transform="translate(-599.19 -339.059)" fill="#fff"/>
      </g>
      <path id="Path_10084" data-name="Path 10084" d="M599,344.363l.113-.04.32-.129,1.165-.494c.979-.4,2.326-1.024,3.8-1.724s2.792-1.359,3.738-1.849l1.121-.591.3-.166a.548.548,0,0,0,.1-.061l-.109.049-.307.15-1.129.566c-.955.477-2.278,1.129-3.747,1.825s-2.832,1.311-3.787,1.748l-1.169.518-.312.142a.47.47,0,0,0-.093.057Z" transform="translate(-553.39 -247.723)" fill="#263238"/>
      <path id="Path_10085" data-name="Path 10085" d="M619.88,340.426a2.906,2.906,0,0,1-.044-.643,2.734,2.734,0,0,1,.182-.623,1.117,1.117,0,0,0-.138,1.266Z" transform="translate(-565.74 -247.633)" fill="#263238"/>
      <path id="Path_10086" data-name="Path 10086" d="M614.373,341.14a.725.725,0,0,0,.085-.332.713.713,0,0,0,0-.348.754.754,0,0,0-.085.336A.811.811,0,0,0,614.373,341.14Z" transform="translate(-562.532 -248.407)" fill="#263238"/>
      <path id="Path_10087" data-name="Path 10087" d="M612.82,341.288a1.042,1.042,0,0,0,.15-.255c.061-.15.1-.275.077-.283s-.089.105-.154.251S612.8,341.279,612.82,341.288Z" transform="translate(-561.615 -248.579)" fill="#263238"/>
      <path id="Path_10088" data-name="Path 10088" d="M611.34,340.553a.809.809,0,0,0,.348-.113c.182-.085.324-.17.312-.19a.808.808,0,0,0-.348.113.863.863,0,0,0-.312.19Z" transform="translate(-560.737 -248.282)" fill="#263238"/>
      <path id="Path_10089" data-name="Path 10089" d="M610.58,339.649a.744.744,0,0,0,.4-.069.7.7,0,0,0,.352-.231,2.366,2.366,0,0,0-.4.154,2.2,2.2,0,0,0-.352.146Z" transform="translate(-560.284 -247.746)" fill="#263238"/>
      <path id="Path_10090" data-name="Path 10090" d="M614.29,339.045a1.308,1.308,0,0,0,.4-.194,2.506,2.506,0,0,0,.4-.3,1.322,1.322,0,0,0,.2-.219.234.234,0,0,0,.04-.17.178.178,0,0,0-.138-.134.809.809,0,0,0-.809.651.83.83,0,0,0,0,.332.262.262,0,0,0,.04.113,1.548,1.548,0,0,1,.02-.433.81.81,0,0,1,.239-.384.712.712,0,0,1,.5-.2c.085,0,.1.105.045.182a1.22,1.22,0,0,1-.178.2,3.138,3.138,0,0,1-.364.307C614.435,338.96,614.281,339.033,614.29,339.045Z" transform="translate(-562.493 -246.96)" fill="#263238"/>
      <path id="Path_10091" data-name="Path 10091" d="M613.333,339.549a.452.452,0,0,0-.089-.3A.707.707,0,0,0,613,339a.465.465,0,0,0-.437-.044.174.174,0,0,0-.032.243.49.49,0,0,0,.154.15,1.336,1.336,0,0,0,.3.154.591.591,0,0,0,.312.053,2.185,2.185,0,0,1-.287-.109,1.378,1.378,0,0,1-.283-.162c-.1-.057-.206-.194-.117-.259a.4.4,0,0,1,.348.044.716.716,0,0,1,.239.206A1.851,1.851,0,0,1,613.333,339.549Z" transform="translate(-561.423 -247.493)" fill="#263238"/>
      <path id="Path_10092" data-name="Path 10092" d="M597.28,346.825a2.832,2.832,0,0,1,.473-.2,2.209,2.209,0,0,1,1.214-.065,2.246,2.246,0,0,1,1.056.591,3.872,3.872,0,0,1,.332.4.486.486,0,0,0-.061-.125,1.916,1.916,0,0,0-.231-.307,2.116,2.116,0,0,0-2.326-.542,1.571,1.571,0,0,0-.344.174A.527.527,0,0,0,597.28,346.825Z" transform="translate(-552.365 -251.964)" fill="#263238"/>
      <path id="Path_10093" data-name="Path 10093" d="M595.82,340.18a12.911,12.911,0,0,0,.558,1.315,12.511,12.511,0,0,0,.635,1.279,12.29,12.29,0,0,0-.558-1.315,11.192,11.192,0,0,0-.635-1.279Z" transform="translate(-551.496 -248.241)" fill="#263238"/>
      <path id="Path_10094" data-name="Path 10094" d="M606.17,345.552a3.879,3.879,0,0,0,.959-.344,4.07,4.07,0,0,0,.882-.51c0-.02-.4.2-.918.433S606.162,345.527,606.17,345.552Z" transform="translate(-557.658 -250.93)" fill="#263238"/>
      <path id="Path_10095" data-name="Path 10095" d="M603.13,348.238c0,.024.073.073.162.146s.146.146.17.134,0-.113-.117-.2S603.134,348.218,603.13,348.238Z" transform="translate(-555.849 -253.034)" fill="#263238"/>
      <path id="Path_10096" data-name="Path 10096" d="M601.3,347.353c0,.02.065.069.162.1s.178.049.186.024-.061-.069-.158-.1S601.308,347.329,601.3,347.353Z" transform="translate(-554.759 -252.504)" fill="#263238"/>
      <path id="Path_10097" data-name="Path 10097" d="M599.348,347.348a1.5,1.5,0,0,1,.206-.032,1.532,1.532,0,0,1,.206,0,.25.25,0,0,0-.214-.069C599.413,347.263,599.336,347.332,599.348,347.348Z" transform="translate(-553.596 -252.447)" fill="#263238"/>
      <path id="Path_10098" data-name="Path 10098" d="M598,347.667c0,.024.053.041.113.036s.113-.028.109-.053-.053-.036-.113-.032S598,347.647,598,347.667Z" transform="translate(-552.794 -252.669)" fill="#263238"/>
      <path id="Path_10099" data-name="Path 10099" d="M486.27,195.518l1.436-6.939c1.161-6.522,10.576-7.174,10.576-7.174l7.174-.129s5.312-.72,8.6,2.974c3.4,3.823,5.187,5.733,5.187,5.733l-4.952,7.906-3.382-3.5a7.715,7.715,0,0,1,1.02,3.621c0,2.12-2.213,3.1-2.213,3.1l-.554,5.389,2.751,5.26L489.4,216.76c.449-3.783.17-6.676,1.954-9.5L493.1,196.72Z" transform="translate(-486.27 -153.596)" fill="#38a8ff"/>
      <path id="Path_10100" data-name="Path 10100" d="M493.4,257.131s31.842-9.286,34.715-7.93S542.9,283.879,542.9,283.879l-9.136,4.451-11.624-28.411s-22.617,8.808-26.246,8.06S493.4,257.131,493.4,257.131Z" transform="translate(-490.414 -193.991)" fill="#000027"/>
      <path id="Path_10101" data-name="Path 10101" d="M510.494,266.69c.453.15,17.912,5.863,19.121,8.124s-1.1,42.576-1.1,42.576l-10.673,1.133.656-39.541L499.38,278.5Z" transform="translate(-494.076 -204.485)" fill="#000027"/>
      <path id="Path_10102" data-name="Path 10102" d="M499.12,283.966a1.212,1.212,0,0,0,.279-.036l.809-.142c.692-.129,1.691-.328,2.921-.591,2.464-.522,5.855-1.311,9.545-2.375,1.849-.538,3.593-1.1,5.167-1.639s2.974-1.084,4.131-1.582c.583-.235,1.1-.469,1.558-.68s.846-.4,1.161-.546l.724-.364a1.178,1.178,0,0,0,.243-.142,1.376,1.376,0,0,0-.263.1l-.74.328c-.32.146-.712.32-1.173.51l-1.57.647c-1.161.477-2.569.983-4.139,1.533s-3.318,1.08-5.159,1.618c-3.686,1.06-7.064,1.873-9.516,2.428l-2.905.659-.789.182A1.1,1.1,0,0,0,499.12,283.966Z" transform="translate(-493.921 -209.95)" fill="#455a64"/>
      <path id="Path_10103" data-name="Path 10103" d="M567.548,291.762a3.344,3.344,0,0,0,.089-.562c.04-.4.093-.927.158-1.542s.134-1.44.21-2.29a10.356,10.356,0,0,0,0-2.832,4.39,4.39,0,0,0-1.428-2.448,7.351,7.351,0,0,0-1.954-1.25q-.7-.321-1.432-.571a2.761,2.761,0,0,0-.55-.158c0,.04.757.307,1.93.87a7.8,7.8,0,0,1,1.885,1.258,4.292,4.292,0,0,1,1.347,2.339,10.643,10.643,0,0,1,0,2.776c-.057.85-.113,1.618-.162,2.294s-.065,1.137-.089,1.546A2.592,2.592,0,0,0,567.548,291.762Z" transform="translate(-531.741 -212.475)" fill="#455a64"/>
      <path id="Path_10104" data-name="Path 10104" d="M577.63,125.145s2.674-.51,6.518-4,5.741-8.225,6.2-8.189,2.484-.833,6.069,7.55,2.023,10.261,1.258,10.224-5.855-1.618-9.075-1.339a34.845,34.845,0,0,0-7.4,1.829Z" transform="translate(-540.666 -112.944)" fill="#5d5d5d"/>
      <path id="Path_10105" data-name="Path 10105" d="M563,145.179l.858,1.748.384.785a2.25,2.25,0,0,0,2.905,1.08l5.757-1.825-3.1-7.687-5.782,2.873a2.254,2.254,0,0,0-1.02,3.026Z" transform="translate(-531.815 -128.624)" fill="#313131"/>
      <path id="Path_10106" data-name="Path 10106" d="M571.28,159.219,573,162.832l.914-.227L579.7,167.6l1.752-3.2s-3.464-1.618-4.074-2.881.142-1.529.142-1.529l-1.594-1.922Z" transform="translate(-536.885 -139.812)" fill="#313131"/>
      <path id="Path_10107" data-name="Path 10107" d="M614.838,120.963c1.9,4.54,2.626,8.557,1.618,8.974s-3.346-2.925-5.26-7.465-2.626-8.557-1.618-8.974S612.94,116.415,614.838,120.963Z" transform="translate(-559.416 -113.253)" fill="#263238"/>
      <path id="Path_10108" data-name="Path 10108" d="M561.2,156.616l1.558-.441-.906-1.845-1.177.688Z" transform="translate(-530.568 -137.585)" fill="#455a64"/>
      <path id="Path_10109" data-name="Path 10109" d="M577.178,159.7l-4.228,2.529-.49-1.028Z" transform="translate(-537.588 -140.783)" fill="#455a64"/>
      <path id="Path_10110" data-name="Path 10110" d="M563.372,154.33l.906,1.845-.32.093-.728-1.857Z" transform="translate(-532.092 -137.585)" fill="#455a64"/>
      <g id="Group_458812" data-name="Group 458812" transform="translate(40.86 17.416)" opacity="0.2">
        <path id="Path_10111" data-name="Path 10111" d="M587.26,156.346l1.056-.356" transform="translate(-587.26 -155.99)"/>
      </g>
      <path id="Path_10112" data-name="Path 10112" d="M566.18,153.344a16.85,16.85,0,0,0,3.407-1.424,8.672,8.672,0,0,0-1.74.623A8.861,8.861,0,0,0,566.18,153.344Z" transform="translate(-533.849 -136.15)" fill="#455a64"/>
      <path id="Path_10113" data-name="Path 10113" d="M565.09,150.64a7.04,7.04,0,0,0,1.574-.611,7.471,7.471,0,0,0,1.5-.809,14.232,14.232,0,0,0-3.071,1.4Z" transform="translate(-533.2 -134.543)" fill="#455a64"/>
      <path id="Path_10114" data-name="Path 10114" d="M567.59,156.414c0,.028.19,0,.486-.093l.518-.154c.19-.065.4-.158.607-.247a6.681,6.681,0,0,0,1.493-.781,7.821,7.821,0,0,0-1.57.6c-.214.089-.4.186-.6.259l-.494.19A1.243,1.243,0,0,0,567.59,156.414Z" transform="translate(-534.688 -138.068)" fill="#455a64"/>
      <path id="Path_10115" data-name="Path 10115" d="M613.12,128.8s2.351-1.368,3.528,1.788-1.27,3.6-1.27,3.6a20.8,20.8,0,0,1-2.258-5.393Z" transform="translate(-561.797 -122.207)" fill="#455a64"/>
      <path id="Path_10116" data-name="Path 10116" d="M607.3,119.86a3.587,3.587,0,0,0,.073.6c.065.38.15.939.279,1.618l.291,1.1c.049.2.105.4.162.611l.085.324c.032.105.073.21.109.32.154.437.316.89.486,1.364l.125.356c.041.121.1.235.154.356l.324.716c.109.243.218.481.324.72.057.113.1.235.166.348l.182.332.7,1.262c.057.1.109.2.17.3l.186.275.352.53.635.947c.429.546.785.979,1.032,1.279a3.784,3.784,0,0,0,.4.453,3.179,3.179,0,0,0-.34-.5l-.979-1.323c-.19-.291-.4-.611-.611-.951-.113-.17-.227-.348-.344-.53l-.178-.275c-.061-.1-.109-.2-.166-.3l-.684-1.262-.182-.332c-.061-.109-.105-.231-.162-.348-.105-.235-.214-.473-.32-.712l-.324-.712c-.053-.117-.109-.231-.154-.352l-.125-.352c-.174-.469-.336-.918-.494-1.351-.036-.105-.081-.21-.113-.32s-.061-.21-.089-.316q-.093-.316-.17-.607c-.113-.4-.214-.757-.311-1.092-.142-.668-.255-1.214-.34-1.618A2.922,2.922,0,0,0,607.3,119.86Z" transform="translate(-558.331 -117.062)" fill="#263238"/>
      <path id="Path_10117" data-name="Path 10117" d="M587.282,168.1a3.9,3.9,0,0,0,.065,1.59c.044.178.158.4.34.368a.348.348,0,0,0,.223-.186,1.9,1.9,0,0,0,.307-.927,3.14,3.14,0,0,0,.089,1.424c.069.214.2.449.4.469s.4-.255.449-.5a3.159,3.159,0,0,1,.077-.736,6.743,6.743,0,0,0-.02,1.428,1.09,1.09,0,0,0,.1.425.4.4,0,0,0,.34.247.433.433,0,0,0,.376-.243,1.162,1.162,0,0,0,.121-.453c.065-.526.105-1.052.117-1.582" transform="translate(-546.381 -145.784)" fill="#ffbe9d"/>
      <path id="Path_10118" data-name="Path 10118" d="M542.339,158.261c0-.081.271-.129.672-.336a3.1,3.1,0,0,0,1.291-1.315,3.442,3.442,0,0,0,.4-1.214,4.2,4.2,0,0,0-.089-1.452,9.363,9.363,0,0,0-1.558-3.152A24.863,24.863,0,0,1,541,147.6a7.656,7.656,0,0,1-.785-3.1,6.436,6.436,0,0,1,.263-2.124c.15-.481.3-.716.368-.7s.057.3.032.773a10.185,10.185,0,0,0,.081,1.987,8.068,8.068,0,0,0,.9,2.727,36.471,36.471,0,0,0,2.068,3.039,9.306,9.306,0,0,1,1.643,3.56,4.77,4.77,0,0,1,0,1.792,3.983,3.983,0,0,1-.615,1.444,3.079,3.079,0,0,1-1.788,1.307C542.622,158.423,542.339,158.322,542.339,158.261Z" transform="translate(-518.383 -130.046)" fill="#263238"/>
      <path id="Path_10119" data-name="Path 10119" d="M521.986,152.915c.044-1.5.109-2.889.109-2.889a3.676,3.676,0,0,0,3.152-3.476c.129-3.071-.194-10.2-.194-10.2l-5.576-2.666-4.855,5.551-.053,13.554a3.706,3.706,0,0,0,3.69,3.722h0A3.706,3.706,0,0,0,521.986,152.915Z" transform="translate(-503.12 -125.29)" fill="#ffbe9d"/>
      <path id="Path_10120" data-name="Path 10120" d="M537.649,152.635a.4.4,0,1,1-.4-.4A.4.4,0,0,1,537.649,152.635Z" transform="translate(-516.38 -136.335)" fill="#263238"/>
      <path id="Path_10121" data-name="Path 10121" d="M537.878,151.312c-.049.053-.336-.19-.753-.206s-.72.194-.765.138.028-.117.162-.214a.983.983,0,0,1,1.214.053C537.862,151.206,537.9,151.312,537.878,151.312Z" transform="translate(-516.086 -135.51)" fill="#263238"/>
      <path id="Path_10122" data-name="Path 10122" d="M526.689,152.449a.4.4,0,1,1-.146-.453A.4.4,0,0,1,526.689,152.449Z" transform="translate(-509.866 -136.149)" fill="#263238"/>
      <path id="Path_10123" data-name="Path 10123" d="M526.522,151.57c-.049.053-.34-.19-.753-.206s-.724.2-.769.142.028-.121.166-.218a.979.979,0,0,1,.611-.178,1,1,0,0,1,.6.231C526.5,151.468,526.546,151.549,526.522,151.57Z" transform="translate(-509.323 -135.666)" fill="#263238"/>
      <path id="Path_10124" data-name="Path 10124" d="M532.438,155.606a2.835,2.835,0,0,1,.676-.105c.105,0,.206-.024.227-.1a.648.648,0,0,0-.065-.34l-.3-.874a16.4,16.4,0,0,1-.672-2.286,15.115,15.115,0,0,1,.841,2.225l.287.882a.684.684,0,0,1,.049.445.271.271,0,0,1-.178.162.706.706,0,0,1-.178,0A2.617,2.617,0,0,1,532.438,155.606Z" transform="translate(-513.676 -136.138)" fill="#263238"/>
      <path id="Path_10125" data-name="Path 10125" d="M527.264,172.157a7.384,7.384,0,0,1-4.014-1.307,3.878,3.878,0,0,0,3.961,2.063Z" transform="translate(-508.288 -147.421)" fill="#eb996e"/>
      <path id="Path_10126" data-name="Path 10126" d="M530.418,162.794a.809.809,0,0,0-.481-.591.631.631,0,0,0-.534,0,.449.449,0,0,0-.247.453.522.522,0,0,0,.429.4,1.441,1.441,0,0,0,.615-.04.4.4,0,0,0,.158-.061.146.146,0,0,0,.069-.146" transform="translate(-511.803 -142.237)" fill="#eb996e"/>
      <path id="Path_10127" data-name="Path 10127" d="M529.636,161c-.028,0-.077.113-.061.312a1.092,1.092,0,0,0,1.056,1c.2,0,.316-.053.312-.081a1.759,1.759,0,0,1-.87-.384C529.688,161.481,529.7,161,529.636,161Z" transform="translate(-512.052 -141.557)" fill="#263238"/>
      <path id="Path_10128" data-name="Path 10128" d="M522.856,135.252a3.71,3.71,0,0,1-3.666,3.237l.838-1.849a8.777,8.777,0,0,1-2.537,2.278,3.006,3.006,0,0,1-3.237-.162c-.279.757-.275,1.594-.534,2.359s-.862,3.916-1.663,3.8c-.732-.109-1.258-3.289-1.444-4.005a6.546,6.546,0,0,1,1.44-5.733,7.849,7.849,0,0,1,6.474-2.739,5.446,5.446,0,0,1,3.006,1.052,4.2,4.2,0,0,1,1.481,2.359" transform="translate(-500.668 -124.54)" fill="#263238"/>
      <path id="Path_10129" data-name="Path 10129" d="M539.8,143.491a2.545,2.545,0,0,1-.862-1.384,7.42,7.42,0,0,1-.206-1.643c0-.158,0-.364.17-.4s.275.113.348.251a5.333,5.333,0,0,1,.554,3.346l-.1-.093" transform="translate(-517.505 -129.085)" fill="#263238"/>
      <path id="Path_10130" data-name="Path 10130" d="M508.664,142.484a49.488,49.488,0,0,0-1.436,19.538,11.018,11.018,0,0,0,.113,1.833,1.619,1.619,0,0,0,1.3,1.173c.575.049,1.214-.3,1.7,0,.38.231.473.732.756,1.072a1.428,1.428,0,0,0,1.493.36,2.525,2.525,0,0,0,1.25-.991,6.38,6.38,0,0,0,.526-5.45c-.526-1.809-1.457-3.492-2.023-5.3-1.048-3.37-.744-6.991-.429-10.52l.275-3.083" transform="translate(-498.496 -129.72)" fill="#263238"/>
      <path id="Path_10131" data-name="Path 10131" d="M513.6,205.777c1.444-1.469,1.315-1.618,1.121-1.748-.53-.4-2.634,2.488-2.533,1.6s2.974-3.208,2.428-3.589c-.74-.5-2.889,2.557-3.091,2.8s-.554-.044-.36-.255c.275-.3,3.111-3.56,2.387-4.046-.4-.275-.809.506-.809.506s-2.428,3.237-2.767,3,1.028-2.205,1.533-2.832.4-1.113-.036-1.113a12.911,12.911,0,0,0-2.387,2.509c-.485.631-1.788,2.387-1.837.983v-.065a3.772,3.772,0,0,0-.809-2.666.481.481,0,0,0-.692.514.584.584,0,0,0,.044.2.689.689,0,0,1,.036.1,6.881,6.881,0,0,1,.166,1.42,3.681,3.681,0,0,1-.17,1.258c-.146.465-.291.858-.4,1.185l-.21.255-11.77,6.656v-5.6s-6.5-.283-6.737-.1a32,32,0,0,0,0,8.9,6.9,6.9,0,0,0,11.442,3.949l9.775-8.9.036.028,1.392-1.145.271-.429.324-.3A43.876,43.876,0,0,0,513.6,205.777Z" transform="translate(-486.347 -164.837)" fill="#ffbe9d"/>
    </g>
    <g id="freepik--character-1--inject-5" transform="translate(97.823 81.701)">
      <path id="Path_10132" data-name="Path 10132" d="M257.1,214.565s5.345,11.709,5.689,12.162,7.04,4.73,7.04,4.73l6.5-.368-7.437-7.8-6.247-12.373Z" transform="translate(-211.263 -177.211)" fill="#ffbe9d"/>
      <path id="Path_10133" data-name="Path 10133" d="M213.263,137.116a.651.651,0,0,1-.162.688.664.664,0,0,1-.7.121c-.433-.19-.522-.777-.461-1.246a2.379,2.379,0,0,0-.032-1.408,3.139,3.139,0,0,0-.773-.761,2.055,2.055,0,0,1-.664-1.711,1.732,1.732,0,0,1,1.113-1.424c.615-.206,1.392-.057,1.833-.534.32-.344.307-.882.55-1.287a1.991,1.991,0,0,1,1.946-.712,5.783,5.783,0,0,0,2.173.036,9.767,9.767,0,0,0,1.582-.9,3.192,3.192,0,0,1,4.394,4.151,2.023,2.023,0,0,1-.939,1.036" transform="translate(-183.492 -127.606)" fill="#263238"/>
      <path id="Path_10134" data-name="Path 10134" d="M217.606,155.24l6.878-.55c.045-.809,0-3.908,0-3.908a3.431,3.431,0,0,0,2.893-3.3c.036-2.856-.461-9.427-.461-9.427h0a9.937,9.937,0,0,0-9.981,1.254l-.4.328Z" transform="translate(-187.108 -133.345)" fill="#ffbe9d"/>
      <path id="Path_10135" data-name="Path 10135" d="M239.587,150.2a.4.4,0,1,1,.3.112A.4.4,0,0,1,239.587,150.2Z" transform="translate(-200.761 -140.646)" fill="#263238"/>
      <path id="Path_10136" data-name="Path 10136" d="M240.1,149.174c-.045.053-.324-.166-.72-.166s-.68.2-.72.15,0-.113.146-.206a.955.955,0,0,1,.579-.182.967.967,0,0,1,.575.194C240.078,149.065,240.119,149.154,240.1,149.174Z" transform="translate(-200.274 -140.207)" fill="#263238"/>
      <path id="Path_10137" data-name="Path 10137" d="M229.478,150.533a.416.416,0,0,1-.437.708.416.416,0,0,1,.437-.708Z" transform="translate(-194.444 -141.222)" fill="#263238"/>
      <path id="Path_10138" data-name="Path 10138" d="M229.524,150.034c-.045.049-.328-.166-.72-.166s-.68.2-.724.15.024-.113.15-.206a.931.931,0,0,1,.579-.182.943.943,0,0,1,.575.194C229.5,149.921,229.545,150.014,229.524,150.034Z" transform="translate(-193.976 -140.719)" fill="#263238"/>
      <path id="Path_10139" data-name="Path 10139" d="M235.231,153.611a1.865,1.865,0,0,1,.639-.133c.1,0,.182-.036.19-.089a.57.57,0,0,0-.073-.3c-.1-.263-.206-.526-.312-.809a10.974,10.974,0,0,1-.676-2.1,11.159,11.159,0,0,1,.882,2.023c.105.279.2.546.3.809a.631.631,0,0,1,.057.425.267.267,0,0,1-.178.166.745.745,0,0,1-.174.024A1.913,1.913,0,0,1,235.231,153.611Z" transform="translate(-198.105 -141.047)" fill="#263238"/>
      <path id="Path_10140" data-name="Path 10140" d="M232.376,159.74a7.457,7.457,0,0,0,1.93.558,1.084,1.084,0,0,1-1.283.433C232.166,160.42,232.376,159.74,232.376,159.74Z" transform="translate(-196.529 -146.739)" fill="#fff"/>
      <path id="Path_10141" data-name="Path 10141" d="M230.666,169.04a6.652,6.652,0,0,1-3.726-1.06,3.514,3.514,0,0,0,3.73,1.8Z" transform="translate(-193.306 -151.645)" fill="#eb996e"/>
      <path id="Path_10142" data-name="Path 10142" d="M225.952,137.719a4.752,4.752,0,0,1-4.014,0c-1.537-.631-3.289-.862-3.641-.538s-.328,1.861-1.76,2.428c0,0,.316,2.905-.854,2.885s-.777-4.576-.777-4.576l2.739-1.618,3.055-.809,2.954.2,2.306.449Z" transform="translate(-186.103 -132.3)" fill="#263238"/>
      <path id="Path_10143" data-name="Path 10143" d="M214.5,150.338c-.049-.02-1.966-.583-1.9,1.376a1.475,1.475,0,0,0,2.023,1.432C214.621,153.089,214.5,150.338,214.5,150.338Z" transform="translate(-184.765 -141.087)" fill="#ffbe9d"/>
      <path id="Path_10144" data-name="Path 10144" d="M214.663,153.345a.457.457,0,0,1-.089.057.376.376,0,0,1-.255,0,.837.837,0,0,1-.4-.744,1.125,1.125,0,0,1,.077-.49.4.4,0,0,1,.251-.271.17.17,0,0,1,.2.089c.028.053,0,.093.028.093s.04-.032,0-.113a.194.194,0,0,0-.081-.117.235.235,0,0,0-.19-.045.473.473,0,0,0-.344.312,1.165,1.165,0,0,0-.1.55.886.886,0,0,0,.522.829.372.372,0,0,0,.312-.065C214.663,153.393,214.687,153.349,214.663,153.345Z" transform="translate(-185.455 -142.01)" fill="#eb996e"/>
      <path id="Path_10145" data-name="Path 10145" d="M214,135.327c-.02-.053.3-.19.7-.069s.583.4.534.453-.267-.15-.6-.251S214.019,135.384,214,135.327Z" transform="translate(-185.6 -132.133)" fill="#263238"/>
      <path id="Path_10146" data-name="Path 10146" d="M216.6,132.45c.069,0,.061.4.154.886s.312.809.263.846-.364-.275-.469-.809A1.4,1.4,0,0,1,216.6,132.45Z" transform="translate(-187.088 -130.49)" fill="#263238"/>
      <path id="Path_10147" data-name="Path 10147" d="M237.5,147.543c-.065-.1.3-.4.866-.437s.955.259.9.356-.433.04-.882.065S237.556,147.648,237.5,147.543Z" transform="translate(-199.588 -139.215)" fill="#263238"/>
      <path id="Path_10148" data-name="Path 10148" d="M226.659,146.64c-.065-.093.3-.4.866-.433s.955.255.9.356-.433.04-.886.065S226.716,146.745,226.659,146.64Z" transform="translate(-193.134 -138.68)" fill="#263238"/>
      <path id="Path_10149" data-name="Path 10149" d="M176.167,445.89l-.676,2.877s-4.681,6.069-6.126,5.782c-.943-.194.218-1.78,2-6.4l.372-1.906Z" transform="translate(-158.826 -317.113)" fill="#33bff8"/>
      <path id="Path_10150" data-name="Path 10150" d="M169.38,456.8a.688.688,0,0,0,.251.239.87.87,0,0,0,.894-.125,25.766,25.766,0,0,0,2.331-2.209c.866-.906,1.594-1.784,2.108-2.428.227-.291.4-.55.6-.769l.162-.21c.036-.049.057-.073.061-.069l-.049.077-.15.223c-.134.186-.328.457-.579.785a29.792,29.792,0,0,1-2.092,2.452,22.91,22.91,0,0,1-2.355,2.2,1.12,1.12,0,0,1-.53.194.808.808,0,0,1-.4-.089.5.5,0,0,1-.194-.182A.341.341,0,0,1,169.38,456.8Z" transform="translate(-159.034 -320.291)" fill="#263238"/>
      <path id="Path_10151" data-name="Path 10151" d="M171,460.133a.756.756,0,0,1,.384-.044,2.022,2.022,0,0,1,.882.307,1.618,1.618,0,0,1,.643.676.842.842,0,0,1,.1.376,2.314,2.314,0,0,0-.154-.348,1.715,1.715,0,0,0-.643-.647,2.132,2.132,0,0,0-.842-.32A3.605,3.605,0,0,0,171,460.133Z" transform="translate(-159.999 -325.562)" fill="#263238"/>
      <path id="Path_10152" data-name="Path 10152" d="M181.749,452.441a.752.752,0,0,1-.057-.138,2.425,2.425,0,0,1-.089-.4,2.087,2.087,0,0,1,.218-1.3,2.023,2.023,0,0,1,.943-.923,1.708,1.708,0,0,1,.4-.117h.146a3.149,3.149,0,0,0-.506.182,2.063,2.063,0,0,0-.9.9,2.217,2.217,0,0,0-.235,1.254A2.477,2.477,0,0,0,181.749,452.441Z" transform="translate(-166.298 -319.298)" fill="#263238"/>
      <path id="Path_10153" data-name="Path 10153" d="M185.327,447.09c.02,0-.085.4-.174.914a3.141,3.141,0,0,1-.243.9s.073-.4.162-.914A2.923,2.923,0,0,1,185.327,447.09Z" transform="translate(-168.281 -317.827)" fill="#263238"/>
      <path id="Path_10154" data-name="Path 10154" d="M174.58,452.378a1.1,1.1,0,0,1,.6,0,1.084,1.084,0,0,1,.542.255c0,.02-.247-.1-.562-.174S174.584,452.4,174.58,452.378Z" transform="translate(-162.13 -320.951)" fill="#263238"/>
      <path id="Path_10155" data-name="Path 10155" d="M174.35,453.584a.737.737,0,0,1,.506,0,.724.724,0,0,1,.441.243c0,.02-.2-.1-.461-.162S174.354,453.608,174.35,453.584Z" transform="translate(-161.994 -321.667)" fill="#263238"/>
      <path id="Path_10156" data-name="Path 10156" d="M173.42,455.041a.765.765,0,0,1,.967.218,2.129,2.129,0,0,0-.461-.2A2.261,2.261,0,0,0,173.42,455.041Z" transform="translate(-161.44 -322.509)" fill="#263238"/>
      <path id="Path_10157" data-name="Path 10157" d="M175.38,450.2s.214-.057.55-.186a4.083,4.083,0,0,0,.562-.271,3.66,3.66,0,0,0,.312-.2c.1-.073.2-.178.2-.287s-.142-.17-.251-.146a.683.683,0,0,0-.287.194c-.174.162-.32.32-.441.453-.239.267-.372.445-.38.437s.02-.053.077-.138.146-.2.259-.34a5.912,5.912,0,0,1,.429-.469.737.737,0,0,1,.328-.215.271.271,0,0,1,.352.219.481.481,0,0,1-.235.356,3.119,3.119,0,0,1-.32.2,3.869,3.869,0,0,1-.583.263,2.9,2.9,0,0,1-.4.109A.581.581,0,0,1,175.38,450.2Z" transform="translate(-162.607 -318.975)" fill="#263238"/>
      <path id="Path_10158" data-name="Path 10158" d="M174.746,449.544a4.781,4.781,0,0,1-.085-.526,2.342,2.342,0,0,0-.162-.538,1.19,1.19,0,0,0-.174-.279c-.073-.081-.178-.15-.267-.1a.282.282,0,0,0-.089.283,1.51,1.51,0,0,0,.093.316,1.84,1.84,0,0,0,.307.473c.214.239.384.356.376.368a.439.439,0,0,1-.125-.073,2.553,2.553,0,0,1-.279-.247,1.83,1.83,0,0,1-.336-.481,1.416,1.416,0,0,1-.1-.336.356.356,0,0,1,.129-.368.307.307,0,0,1,.368.117,1.181,1.181,0,0,1,.186.3,1.994,1.994,0,0,1,.146.562c.02.166.028.3.032.4A.533.533,0,0,1,174.746,449.544Z" transform="translate(-161.722 -318.38)" fill="#263238"/>
      <g id="Group_458813" data-name="Group 458813" transform="translate(10.211 130.282)" opacity="0.4">
        <path id="Path_10159" data-name="Path 10159" d="M175.5,450.982l.328-1.372s-1.145.21-1.444,1.068a3.641,3.641,0,0,0-.223,1.469l-2.492,2.687s-.627-1.214-1.76-.93a11.742,11.742,0,0,0-.862,2.452c.028.49.6.433.809.34a9.922,9.922,0,0,0,2.233-1.76C173.4,453.547,174.859,451.811,175.5,450.982Z" transform="translate(-169.048 -449.61)"/>
      </g>
      <path id="Path_10160" data-name="Path 10160" d="M233.528,443.724V439.9l-7.145-.085-.093,5.583.441.032c1.974.134,10.034.542,11.357.158C239.585,445.153,233.528,443.724,233.528,443.724Z" transform="translate(-192.919 -313.499)" fill="#33bff8"/>
      <g id="Group_458814" data-name="Group 458814" transform="translate(33.4 129.801)" opacity="0.4">
        <path id="Path_10161" data-name="Path 10161" d="M228.945,450.5a2.5,2.5,0,0,0-.894-1.537,2.427,2.427,0,0,0-1.667-.538l-.024,2Z" transform="translate(-226.36 -448.42)"/>
      </g>
      <g id="Group_458815" data-name="Group 458815" transform="translate(33.392 131.035)" opacity="0.4">
        <path id="Path_10162" data-name="Path 10162" d="M236.516,451.47s2.124.639,1.853.987-8.432.243-12.029-.117v-.162l9.52.2S236.1,451.482,236.516,451.47Z" transform="translate(-226.34 -451.47)"/>
      </g>
      <path id="Path_10163" data-name="Path 10163" d="M226.1,453.21a.576.576,0,0,0,.121,0l.352.024,1.3.073c1.1.053,2.614.105,4.289.129s3.192,0,4.293,0l1.3-.04h-5.592c-1.675,0-3.188-.069-4.285-.105l-1.3-.045h-.356Z" transform="translate(-192.806 -321.471)" fill="#263238"/>
      <path id="Path_10164" data-name="Path 10164" d="M249.883,452.369a3.239,3.239,0,0,1,.251-.619,2.954,2.954,0,0,1,.449-.49.951.951,0,0,0-.522.445A.963.963,0,0,0,249.883,452.369Z" transform="translate(-206.963 -320.31)" fill="#263238"/>
      <path id="Path_10165" data-name="Path 10165" d="M244.705,450.419a1.433,1.433,0,0,0,.231-.271c.105-.162.178-.307.158-.32s-.125.109-.231.271S244.685,450.407,244.705,450.419Z" transform="translate(-203.881 -319.457)" fill="#263238"/>
      <path id="Path_10166" data-name="Path 10166" d="M243.287,449.929c0,.02.129-.057.255-.162s.214-.214.2-.231-.129.053-.255.162S243.271,449.913,243.287,449.929Z" transform="translate(-203.038 -319.282)" fill="#263238"/>
      <path id="Path_10167" data-name="Path 10167" d="M242.41,448.771a1.671,1.671,0,0,0,.749.02.837.837,0,0,0-.372-.053A.878.878,0,0,0,242.41,448.771Z" transform="translate(-202.517 -318.804)" fill="#263238"/>
      <path id="Path_10168" data-name="Path 10168" d="M242.11,447.65a.728.728,0,0,0,.4.129.752.752,0,0,0,.429-.053,2.558,2.558,0,0,0-.4-.036A2.67,2.67,0,0,0,242.11,447.65Z" transform="translate(-202.338 -318.161)" fill="#263238"/>
      <path id="Path_10169" data-name="Path 10169" d="M245.33,448.823a1.211,1.211,0,0,0,.461,0,2.637,2.637,0,0,0,.49-.1,1.425,1.425,0,0,0,.283-.113.226.226,0,0,0,.113-.142.178.178,0,0,0-.065-.182.846.846,0,0,0-1.048.231.9.9,0,0,0-.154.307.235.235,0,0,0,0,.121,1.319,1.319,0,0,1,.214-.4.83.83,0,0,1,.4-.251.732.732,0,0,1,.546.045c.073.057.04.142-.04.19a1.216,1.216,0,0,1-.259.105,2.977,2.977,0,0,1-.473.117C245.508,448.811,245.33,448.811,245.33,448.823Z" transform="translate(-204.255 -318.484)" fill="#263238"/>
      <path id="Path_10170" data-name="Path 10170" d="M244.758,448.494a.469.469,0,0,0,.057-.316.846.846,0,0,0-.121-.34.469.469,0,0,0-.38-.239.186.186,0,0,0-.146.21.522.522,0,0,0,.077.206,1.262,1.262,0,0,0,.214.283c.142.142.255.2.259.186s-.089-.081-.214-.231a1.793,1.793,0,0,1-.19-.275c-.061-.1-.1-.275,0-.3s.231.109.3.2a.756.756,0,0,1,.125.3,1.837,1.837,0,0,1,.016.308Z" transform="translate(-203.561 -318.131)" fill="#263238"/>
      <path id="Path_10171" data-name="Path 10171" d="M226.52,448.311s.2,0,.526.024a2.229,2.229,0,0,1,1.853,1.517c.105.308.113.514.13.514s0-.053,0-.146a2.177,2.177,0,0,0-1.979-1.946,2.018,2.018,0,0,0-.4,0A.425.425,0,0,0,226.52,448.311Z" transform="translate(-193.056 -318.527)" fill="#263238"/>
      <path id="Path_10172" data-name="Path 10172" d="M228.31,441.05a24.275,24.275,0,0,0-.073,2.937A24.275,24.275,0,0,0,228.31,441.05Z" transform="translate(-194.069 -314.231)" fill="#263238"/>
      <path id="Path_10173" data-name="Path 10173" d="M235,451.853a3.981,3.981,0,0,0,1.044.117,4.114,4.114,0,0,0,1.048-.069c0-.024-.469,0-1.048,0S235,451.828,235,451.853Z" transform="translate(-198.105 -320.66)" fill="#263238"/>
      <path id="Path_10174" data-name="Path 10174" d="M231.53,451.806a1.306,1.306,0,0,0,.085.21c.049.109.069.2.093.2s.04-.109,0-.235S231.546,451.79,231.53,451.806Z" transform="translate(-196.039 -320.634)" fill="#263238"/>
      <path id="Path_10175" data-name="Path 10175" d="M230.243,450.165c-.02,0,.028.093.1.17s.146.121.162.105-.028-.089-.1-.166S230.259,450.149,230.243,450.165Z" transform="translate(-195.27 -319.656)" fill="#263238"/>
      <path id="Path_10176" data-name="Path 10176" d="M228.389,449.351c0,.024.1.024.2.061s.182.1.2.081-.036-.117-.17-.162S228.381,449.327,228.389,449.351Z" transform="translate(-194.168 -319.149)" fill="#263238"/>
      <path id="Path_10177" data-name="Path 10177" d="M227.06,448.988c0,.024.032.061.093.085s.113.024.121,0-.032-.057-.089-.081A.218.218,0,0,0,227.06,448.988Z" transform="translate(-193.377 -318.953)" fill="#263238"/>
      <path id="Path_10178" data-name="Path 10178" d="M203.626,262.12l-3.334,74.155-11.135.235,1.849-62.082-12.522,62.555H167.9l14.137-74.863" transform="translate(-158.153 -207.696)" fill="#000027"/>
      <path id="Path_10179" data-name="Path 10179" d="M179.035,443.969l-.255,1.1-10.88.146.166-1.711Z" transform="translate(-158.153 -315.69)" fill="#455a64"/>
      <path id="Path_10180" data-name="Path 10180" d="M174.235,444.539c.057,0,.081.15.053.316s-.093.291-.154.283-.081-.154-.053-.32S174.179,444.527,174.235,444.539Z" transform="translate(-161.826 -316.308)" fill="#455a64"/>
      <path id="Path_10181" data-name="Path 10181" d="M175.128,438.539c.057,0,.057.287,0,.623s-.146.6-.2.591-.061-.291,0-.627S175.071,438.527,175.128,438.539Z" transform="translate(-162.31 -312.736)" fill="#455a64"/>
      <path id="Path_10182" data-name="Path 10182" d="M176.132,432.53c.057,0,.057.291,0,.627s-.146.6-.206.587-.057-.287,0-.623S176.075,432.522,176.132,432.53Z" transform="translate(-162.905 -309.158)" fill="#455a64"/>
      <path id="Path_10183" data-name="Path 10183" d="M177.144,426.529c.057,0,.057.287,0,.623s-.15.6-.206.591-.057-.291,0-.623S177.087,426.517,177.144,426.529Z" transform="translate(-163.509 -305.585)" fill="#455a64"/>
      <path id="Path_10184" data-name="Path 10184" d="M178.154,420.52c.057,0,.057.291,0,.627s-.15.6-.206.591-.057-.291,0-.627S178.1,420.512,178.154,420.52Z" transform="translate(-164.11 -302.007)" fill="#455a64"/>
      <path id="Path_10185" data-name="Path 10185" d="M179.162,414.519c.057,0,.061.287,0,.623s-.15.6-.206.591-.061-.287,0-.623S179.1,414.507,179.162,414.519Z" transform="translate(-164.709 -298.434)" fill="#455a64"/>
      <path id="Path_10186" data-name="Path 10186" d="M180.184,408.51c.057,0,.057.291,0,.627s-.15.6-.206.591-.057-.291,0-.627S180.127,408.5,180.184,408.51Z" transform="translate(-165.319 -294.856)" fill="#455a64"/>
      <path id="Path_10187" data-name="Path 10187" d="M181.2,402.51c.057,0,.057.291,0,.627s-.15.6-.206.587-.057-.287,0-.623S181.147,402.5,181.2,402.51Z" transform="translate(-165.926 -291.284)" fill="#455a64"/>
      <path id="Path_10188" data-name="Path 10188" d="M182.224,396.509c.057,0,.057.287,0,.623s-.15.6-.206.591-.057-.291,0-.627S182.167,396.5,182.224,396.509Z" transform="translate(-166.534 -287.711)" fill="#455a64"/>
      <path id="Path_10189" data-name="Path 10189" d="M183.246,390.5c.057,0,.057.291,0,.627s-.15.6-.21.591-.057-.291,0-.627S183.189,390.492,183.246,390.5Z" transform="translate(-167.139 -284.133)" fill="#455a64"/>
      <path id="Path_10190" data-name="Path 10190" d="M184.278,384.5c.057,0,.057.291,0,.627s-.154.6-.21.587-.057-.287,0-.623S184.221,384.492,184.278,384.5Z" transform="translate(-167.754 -280.561)" fill="#455a64"/>
      <path id="Path_10191" data-name="Path 10191" d="M185.324,378.5c.057,0,.057.291,0,.627s-.15.6-.206.587-.057-.287,0-.623S185.263,378.492,185.324,378.5Z" transform="translate(-168.379 -276.988)" fill="#455a64"/>
      <path id="Path_10192" data-name="Path 10192" d="M186.364,372.5c.057,0,.057.291,0,.627s-.15.6-.206.587-.057-.287,0-.623S186.307,372.492,186.364,372.5Z" transform="translate(-168.998 -273.416)" fill="#455a64"/>
      <path id="Path_10193" data-name="Path 10193" d="M187.4,366.5c.061,0,.057.291,0,.627s-.154.6-.21.587-.057-.287,0-.623S187.341,366.492,187.4,366.5Z" transform="translate(-169.612 -269.844)" fill="#455a64"/>
      <path id="Path_10194" data-name="Path 10194" d="M188.458,360.509c.057,0,.057.287,0,.623s-.154.6-.21.587-.057-.287,0-.623S188.4,360.5,188.458,360.509Z" transform="translate(-170.243 -266.277)" fill="#455a64"/>
      <path id="Path_10195" data-name="Path 10195" d="M189.518,354.509c.057,0,.057.291,0,.623s-.154.6-.21.591-.057-.291,0-.627S189.461,354.5,189.518,354.509Z" transform="translate(-170.874 -262.704)" fill="#455a64"/>
      <path id="Path_10196" data-name="Path 10196" d="M190.622,348.51c.057,0,.057.291,0,.627s-.154.6-.214.587-.053-.291,0-.623S190.549,348.5,190.622,348.51Z" transform="translate(-171.529 -259.132)" fill="#455a64"/>
      <path id="Path_10197" data-name="Path 10197" d="M191.628,342.519c.057,0,.053.291,0,.623s-.154.6-.21.591-.057-.291,0-.627S191.583,342.507,191.628,342.519Z" transform="translate(-172.13 -255.565)" fill="#455a64"/>
      <path id="Path_10198" data-name="Path 10198" d="M192.748,336.529c.057,0,.053.287,0,.623s-.154.6-.21.587-.057-.287,0-.623S192.7,336.517,192.748,336.529Z" transform="translate(-172.797 -251.999)" fill="#455a64"/>
      <path id="Path_10199" data-name="Path 10199" d="M193.832,330.539c.061,0,.057.287,0,.623s-.158.6-.214.587-.057-.291,0-.623S193.775,330.527,193.832,330.539Z" transform="translate(-173.44 -248.433)" fill="#455a64"/>
      <path id="Path_10200" data-name="Path 10200" d="M194.942,324.549c.057,0,.053.291,0,.623s-.158.6-.214.587-.057-.291,0-.623S194.885,324.537,194.942,324.549Z" transform="translate(-174.101 -244.866)" fill="#455a64"/>
      <path id="Path_10201" data-name="Path 10201" d="M196.046,318.559c.057,0,.053.291,0,.623s-.158.6-.218.587-.053-.287,0-.623S195.989,318.547,196.046,318.559Z" transform="translate(-174.756 -241.3)" fill="#455a64"/>
      <path id="Path_10202" data-name="Path 10202" d="M197.178,312.579c.057,0,.053.287,0,.623s-.162.595-.218.587-.053-.291,0-.627S197.122,312.567,197.178,312.579Z" transform="translate(-175.431 -237.739)" fill="#455a64"/>
      <path id="Path_10203" data-name="Path 10203" d="M198.31,306.59c.057,0,.053.291,0,.627s-.162.595-.218.583-.049-.287,0-.623S198.254,306.582,198.31,306.59Z" transform="translate(-176.106 -234.173)" fill="#455a64"/>
      <path id="Path_10204" data-name="Path 10204" d="M199.458,300.609c.057,0,.053.291,0,.627s-.162.595-.218.583-.053-.291,0-.623S199.4,300.6,199.458,300.609Z" transform="translate(-176.789 -230.612)" fill="#455a64"/>
      <path id="Path_10205" data-name="Path 10205" d="M200.612,294.63c.057,0,.053.291,0,.627s-.166.595-.223.583-.053-.291,0-.623S200.556,294.622,200.612,294.63Z" transform="translate(-177.473 -227.052)" fill="#455a64"/>
      <path id="Path_10206" data-name="Path 10206" d="M201.792,288.659c.057,0,.049.291,0,.623s-.166.595-.222.587-.053-.291,0-.627S201.719,288.647,201.792,288.659Z" transform="translate(-178.176 -223.497)" fill="#455a64"/>
      <path id="Path_10207" data-name="Path 10207" d="M202.955,282.689c.057,0,.049.291-.02.623s-.166.595-.223.583-.049-.291,0-.623S202.9,282.677,202.955,282.689Z" transform="translate(-178.857 -219.943)" fill="#455a64"/>
      <path id="Path_10208" data-name="Path 10208" d="M204.184,276.719c.057,0,.049.291,0,.623s-.166.595-.223.583-.049-.291,0-.623S204.128,276.707,204.184,276.719Z" transform="translate(-179.601 -216.388)" fill="#455a64"/>
      <path id="Path_10209" data-name="Path 10209" d="M205.4,270.749c.057,0,.049.291,0,.623s-.17.595-.227.583-.049-.291,0-.623S205.342,270.737,205.4,270.749Z" transform="translate(-180.321 -212.834)" fill="#455a64"/>
      <path id="Path_10210" data-name="Path 10210" d="M206.445,266.289c.057,0,.077.154.045.32s-.109.287-.166.275-.077-.154-.04-.32S206.388,266.277,206.445,266.289Z" transform="translate(-180.996 -210.177)" fill="#455a64"/>
      <path id="Path_10211" data-name="Path 10211" d="M225,444.52c.061,0,.1.142.089.307s-.061.3-.117.3-.1-.142-.093-.312S224.927,444.516,225,444.52Z" transform="translate(-192.078 -316.297)" fill="#455a64"/>
      <path id="Path_10212" data-name="Path 10212" d="M225.246,438.41c.057,0,.093.279.081.623s-.073.615-.13.615-.093-.283-.081-.623S225.185,438.41,225.246,438.41Z" transform="translate(-192.219 -312.659)" fill="#455a64"/>
      <path id="Path_10213" data-name="Path 10213" d="M225.444,432.3c.057,0,.1.279.085.619s-.065.619-.121.615-.1-.279-.089-.619S225.383,432.3,225.444,432.3Z" transform="translate(-192.34 -309.021)" fill="#455a64"/>
      <path id="Path_10214" data-name="Path 10214" d="M225.6,426.19c.057,0,.1.279.089.619s-.061.619-.117.615-.1-.279-.093-.619S225.543,426.186,225.6,426.19Z" transform="translate(-192.435 -305.383)" fill="#455a64"/>
      <path id="Path_10215" data-name="Path 10215" d="M225.75,420.07c.057,0,.1.279.089.623s-.061.615-.121.615-.1-.279-.089-.619S225.689,420.07,225.75,420.07Z" transform="translate(-192.524 -301.739)" fill="#455a64"/>
      <path id="Path_10216" data-name="Path 10216" d="M225.9,414c.061,0,.1.279.089.619s-.061.619-.121.619-.1-.283-.089-.623S225.843,414,225.9,414Z" transform="translate(-192.613 -298.125)" fill="#455a64"/>
      <path id="Path_10217" data-name="Path 10217" d="M226.1,407.84c.057,0,.093.283.081.623s-.069.615-.125.615-.1-.279-.085-.623S226.036,407.84,226.1,407.84Z" transform="translate(-192.725 -294.458)" fill="#455a64"/>
      <path id="Path_10218" data-name="Path 10218" d="M226.344,401.73c.061,0,.093.283.081.623s-.073.615-.129.615-.1-.283-.081-.623S226.288,401.73,226.344,401.73Z" transform="translate(-192.872 -290.82)" fill="#455a64"/>
      <path id="Path_10219" data-name="Path 10219" d="M226.586,395.62c.061,0,.1.283.081.623s-.069.615-.125.615-.1-.279-.085-.623S226.53,395.62,226.586,395.62Z" transform="translate(-193.017 -287.182)" fill="#455a64"/>
      <path id="Path_10220" data-name="Path 10220" d="M226.812,389.51c.061,0,.1.283.085.623s-.065.615-.125.615-.1-.279-.085-.623S226.751,389.51,226.812,389.51Z" transform="translate(-193.153 -283.544)" fill="#455a64"/>
      <path id="Path_10221" data-name="Path 10221" d="M227,383.4c.061,0,.1.279.089.619s-.065.619-.125.615-.1-.279-.085-.619S226.925,383.4,227,383.4Z" transform="translate(-193.267 -279.906)" fill="#455a64"/>
      <path id="Path_10222" data-name="Path 10222" d="M227.16,377.28c.061,0,.1.283.089.623s-.061.615-.117.615-.1-.279-.093-.619S227.1,377.28,227.16,377.28Z" transform="translate(-193.364 -276.262)" fill="#455a64"/>
      <path id="Path_10223" data-name="Path 10223" d="M227.3,371.17c.061,0,.1.279.093.623s-.057.615-.117.615-.1-.279-.093-.619S227.24,371.17,227.3,371.17Z" transform="translate(-193.448 -272.624)" fill="#455a64"/>
      <path id="Path_10224" data-name="Path 10224" d="M227.407,365.06c.057,0,.1.279.093.619s-.057.619-.113.619-.1-.279-.1-.623S227.346,365.06,227.407,365.06Z" transform="translate(-193.514 -268.986)" fill="#455a64"/>
      <path id="Path_10225" data-name="Path 10225" d="M227.483,359c.057,0,.1.275.1.619s-.053.615-.109.615-.105-.275-.1-.619S227.426,358.974,227.483,359Z" transform="translate(-193.561 -265.376)" fill="#455a64"/>
      <path id="Path_10226" data-name="Path 10226" d="M227.529,352.83c.061,0,.105.279.105.619s-.053.619-.109.619-.105-.279-.105-.619S227.473,352.83,227.529,352.83Z" transform="translate(-193.591 -261.705)" fill="#455a64"/>
      <path id="Path_10227" data-name="Path 10227" d="M227.555,346.72c.057,0,.105.275.105.619s-.049.615-.109.615-.105-.275-.1-.615S227.494,346.72,227.555,346.72Z" transform="translate(-193.609 -258.067)" fill="#455a64"/>
      <path id="Path_10228" data-name="Path 10228" d="M227.541,340.6c.057,0,.105.279.109.619s-.045.619-.105.619-.105-.275-.105-.619S227.485,340.6,227.541,340.6Z" transform="translate(-193.603 -254.423)" fill="#455a64"/>
      <path id="Path_10229" data-name="Path 10229" d="M227.491,334.49c.061,0,.109.275.113.619s-.044.619-.1.619-.109-.279-.113-.619S227.434,334.49,227.491,334.49Z" transform="translate(-193.573 -250.785)" fill="#455a64"/>
      <path id="Path_10230" data-name="Path 10230" d="M227.416,328.38c.061,0,.109.275.113.615s-.036.619-.093.619-.109-.275-.117-.615S227.359,328.38,227.416,328.38Z" transform="translate(-193.531 -247.147)" fill="#455a64"/>
      <path id="Path_10231" data-name="Path 10231" d="M227.312,322.27c.061,0,.113.271.117.615s-.036.619-.093.619-.109-.275-.117-.615S227.255,322.27,227.312,322.27Z" transform="translate(-193.471 -243.509)" fill="#455a64"/>
      <path id="Path_10232" data-name="Path 10232" d="M227.177,316.15c.061,0,.113.275.121.615s-.032.619-.089.623-.113-.275-.121-.619S227.121,316.15,227.177,316.15Z" transform="translate(-193.393 -239.865)" fill="#455a64"/>
      <path id="Path_10233" data-name="Path 10233" d="M226.978,310c.057,0,.117.275.129.615s-.024.619-.081.623-.117-.275-.129-.615A1.183,1.183,0,0,1,226.978,310Z" transform="translate(-193.279 -236.204)" fill="#455a64"/>
      <path id="Path_10234" data-name="Path 10234" d="M226.633,303.93c.061,0,.125.267.146.607s0,.623-.065.627-.121-.271-.146-.611S226.576,303.934,226.633,303.93Z" transform="translate(-193.079 -232.59)" fill="#455a64"/>
      <path id="Path_10235" data-name="Path 10235" d="M226.09,297.84c.057,0,.133.263.17.6a1.1,1.1,0,0,1-.045.627c-.044.008-.134-.267-.166-.607S226.017,297.844,226.09,297.84Z" transform="translate(-192.763 -228.964)" fill="#455a64"/>
      <path id="Path_10236" data-name="Path 10236" d="M225.488,293.33c.061,0,.125.121.15.287s0,.308-.061.316-.125-.121-.15-.287S225.431,293.338,225.488,293.33Z" transform="translate(-192.4 -226.278)" fill="#455a64"/>
      <path id="Path_10237" data-name="Path 10237" d="M231.354,443.688l-11.774.194.093-1.962,11.681.061Z" transform="translate(-188.924 -314.749)" fill="#455a64"/>
      <path id="Path_10238" data-name="Path 10238" d="M226.637,264.45a1.756,1.756,0,0,1,0,.457c0,.34-.028.757-.045,1.246-.049,1.052-.125,2.5-.223,4.1-.053.809-.105,1.558-.15,2.258a6.523,6.523,0,0,1-.271,1.845,1.546,1.546,0,0,1-.858.914.942.942,0,0,1-.344.069c-.077,0-.117,0-.117-.02a2.021,2.021,0,0,0,.429-.121,1.546,1.546,0,0,0,.753-.894,6.955,6.955,0,0,0,.214-1.8c.04-.7.085-1.461.134-2.258.1-1.618.2-3.051.283-4.1.045-.49.081-.906.109-1.242A2.291,2.291,0,0,1,226.637,264.45Z" transform="translate(-191.93 -209.083)" fill="#455a64"/>
      <path id="Path_10239" data-name="Path 10239" d="M225.817,266.739c0-.028.186,0,.251.251a.465.465,0,0,1-.089.4.477.477,0,0,1-.809-.332.461.461,0,0,1,.223-.356c.218-.129.376-.024.356,0s-.138,0-.267.125a.332.332,0,0,0-.117.243.3.3,0,0,0,.477.194.348.348,0,0,0,.085-.259C225.91,266.84,225.8,266.788,225.817,266.739Z" transform="translate(-192.252 -210.389)" fill="#455a64"/>
      <path id="Path_10240" data-name="Path 10240" d="M200.88,267.657c0-.036.356.121.947.2a4.046,4.046,0,0,0,4-1.784c.336-.5.449-.858.481-.846a2.116,2.116,0,0,1-.356.923,3.912,3.912,0,0,1-4.147,1.853A2.14,2.14,0,0,1,200.88,267.657Z" transform="translate(-177.79 -209.547)" fill="#455a64"/>
      <path id="Path_10241" data-name="Path 10241" d="M246.581,264.45c.032,0,.04.3.182.765a3.314,3.314,0,0,0,2.654,2.326c.477.081.781.044.785.081a1.574,1.574,0,0,1-.809.065,3.156,3.156,0,0,1-2.78-2.428,1.521,1.521,0,0,1-.032-.809Z" transform="translate(-204.976 -209.083)" fill="#455a64"/>
      <path id="Path_10242" data-name="Path 10242" d="M212.811,214.447l-23.968-1.618.279-11.81v-8.545l-2.67,3.937-7.121-7.441,7.958-7.635h0a12.5,12.5,0,0,1,4.855-3.136,10.063,10.063,0,0,1,3.034-.579h0a12.174,12.174,0,0,0,7.327,0l1.214.138a14.456,14.456,0,0,1,8.436,4.046l7.647,11.1-8.618,4.479-1-3.427S212.867,212.08,212.811,214.447Z" transform="translate(-164.959 -157.384)" fill="#455a64"/>
      <path id="Path_10243" data-name="Path 10243" d="M203,211.459a6.07,6.07,0,0,1,.773-1.408,5.877,5.877,0,0,1,.951-1.291,6.187,6.187,0,0,1-.773,1.4A6.436,6.436,0,0,1,203,211.459Z" transform="translate(-179.052 -175.925)" fill="#263238"/>
      <path id="Path_10244" data-name="Path 10244" d="M191.678,274.991l-47.868-9.1,3.4-17.382,47.872,9.1,3.949,9.589Z" transform="translate(-143.81 -199.592)" fill="#ffc727"/>
      <g id="Group_458816" data-name="Group 458816" transform="translate(0 48.918)" opacity="0.745">
        <path id="Path_10245" data-name="Path 10245" d="M191.678,274.991l-47.868-9.1,3.4-17.382,47.872,9.1,3.949,9.589Z" transform="translate(-143.81 -248.51)" fill="#000027"/>
      </g>
      <path id="Path_10246" data-name="Path 10246" d="M191.573,271.048l-46.853-9.176,3.4-17.382,46.857,9.18,3.949,9.589Z" transform="translate(-144.352 -197.199)" fill="#38a8ff"/>
      <path id="Path_10247" data-name="Path 10247" d="M182.759,267.68l-2.933,4.414-.676-.117-1.27-5.147.74.125,1.036,4.228,2.428-3.621Z" transform="translate(-164.095 -210.5)" fill="#fff"/>
      <path id="Path_10248" data-name="Path 10248" d="M191.221,273.618l-2.541-.445-.716,1.1-.7-.125,3-4.4.676.117,1.339,5.163-.716-.125Zm-.142-.591-.623-2.521-1.44,2.177Z" transform="translate(-169.68 -212.239)" fill="#fff"/>
      <path id="Path_10249" data-name="Path 10249" d="M201.209,273.965a2.456,2.456,0,0,1,2.962-2,2.391,2.391,0,0,1,1.683,1.06l-.518.356a1.792,1.792,0,0,0-1.246-.809,1.865,1.865,0,1,0-.643,3.674,1.809,1.809,0,0,0,1.449-.336l.368.506a2.4,2.4,0,0,1-1.954.433,2.452,2.452,0,0,1-2.1-2.881Z" transform="translate(-177.961 -213.521)" fill="#fff"/>
      <path id="Path_10250" data-name="Path 10250" d="M215.307,277.852l-2.541-.445-.732,1.1-.7-.121,3-4.39.676.121,1.339,5.138-.72-.125Zm-.146-.591-.619-2.521L213.1,276.9Z" transform="translate(-184.012 -214.769)" fill="#fff"/>
      <path id="Path_10251" data-name="Path 10251" d="M230.418,276.216,229.585,281l-.562-.1-2.246-4.066-.623,3.564-.684-.117.838-4.782.558.1,2.246,4.066.619-3.556Z" transform="translate(-192.43 -215.662)" fill="#fff"/>
      <path id="Path_10252" data-name="Path 10252" d="M240.929,278.478l-1.639-.283.1-.595,3.957.688-.105.595L241.6,278.6l-.732,4.184-.676-.117Z" transform="translate(-200.659 -216.913)" fill="#fff"/>
      <path id="Path_10253" data-name="Path 10253" d="M164.433,271.083l.465,1.137a10.657,10.657,0,0,0,.749,1.926,3,3,0,0,0,.595.809,4.488,4.488,0,0,0,.991.809.4.4,0,0,1-.024.749,3.243,3.243,0,0,1-2.157-1.335c-.813-.967-.781,1.024-.781,1.752a11.84,11.84,0,0,1-.332,3.148c-.328.259-.664-.045-.647-.769s-.085-2.9-.469-2.885-.328,3.714-.328,3.714.138.785-.3.809c-.809.065-.562-3.864-.53-4.24.024-.259-.4-.255-.4.024s.138,3.686-.676,3.759c-.623.057.166-3.237-.255-3.921s-.344,2.557-.943,2.585c-.218,0-.4,0-.162-1.881s1.7-7,1.7-7l3.565.846" transform="translate(-152.918 -212.548)" fill="#ffbe9d"/>
      <path id="Path_10254" data-name="Path 10254" d="M175.012,212.966s-5.025,4.155-5.349,5.575-2.747,17.187-2.747,17.187l-4.916-.74s.247-19.6,1.966-21.5,5.98-6.364,5.98-6.364Z" transform="translate(-154.64 -174.949)" fill="#ffbe9d"/>
      <path id="Path_10255" data-name="Path 10255" d="M167.391,225.535a.476.476,0,0,1-.142-.162,1,1,0,0,1,.328-1.335,1.032,1.032,0,0,1,1.072-.053.809.809,0,0,1,.376.449.716.716,0,0,1-.04.55.591.591,0,0,1-.809.231.486.486,0,0,1-.17-.566c.057-.138.142-.17.146-.162a.973.973,0,0,0-.081.182.4.4,0,0,0,.174.445.457.457,0,0,0,.619-.2.566.566,0,0,0,.02-.4.639.639,0,0,0-.3-.352.87.87,0,0,0-.9.04.89.89,0,0,0-.4.635A1.335,1.335,0,0,0,167.391,225.535Z" transform="translate(-157.688 -184.916)" fill="#eb996e"/>
      <path id="Path_10256" data-name="Path 10256" d="M294.56,258.678s4.6-1.618,4.912-1.359a13.3,13.3,0,0,1,1.173,2.1.659.659,0,0,1-.595.951h0a.66.66,0,0,1-.579-.34l-.753-1.372Z" transform="translate(-233.567 -204.82)" fill="#ffbe9d"/>
      <path id="Path_10257" data-name="Path 10257" d="M299,258.678s4.6-1.618,4.908-1.359a12.97,12.97,0,0,1,1.173,2.1.659.659,0,0,1-.595.951h0a.663.663,0,0,1-.579-.34l-.753-1.372Z" transform="translate(-236.21 -204.82)" fill="#ffbe9d"/>
      <path id="Path_10258" data-name="Path 10258" d="M303.46,258.678s4.6-1.618,4.912-1.359a12.973,12.973,0,0,1,1.173,2.1.659.659,0,0,1-.595.951h0a.664.664,0,0,1-.579-.34l-.753-1.372Z" transform="translate(-238.866 -204.82)" fill="#ffbe9d"/>
      <path id="Path_10259" data-name="Path 10259" d="M302.835,259.061a2.3,2.3,0,0,1-.4-.773,3.714,3.714,0,0,0-.429-.809.753.753,0,0,0-.372-.283,1.213,1.213,0,0,0-.522.117,21.174,21.174,0,0,0-2.727,1.092,2.636,2.636,0,0,1,.716-.494,9.973,9.973,0,0,1,1.934-.809,1.3,1.3,0,0,1,.631-.125.89.89,0,0,1,.494.368,3.233,3.233,0,0,1,.4.866A8.344,8.344,0,0,1,302.835,259.061Z" transform="translate(-235.841 -204.633)" fill="#eb996e"/>
      <path id="Path_10260" data-name="Path 10260" d="M309.847,258.9a2.308,2.308,0,0,1-.247-.486,8.4,8.4,0,0,0-.651-1.117.566.566,0,0,0-.55-.214,2.866,2.866,0,0,0-.55.146c-.332.117-.562.081-.558.053s.2-.045.506-.19a2.182,2.182,0,0,1,.579-.2.809.809,0,0,1,.4.02.772.772,0,0,1,.348.251A3.419,3.419,0,0,1,309.847,258.9Z" transform="translate(-241.146 -204.575)" fill="#eb996e"/>
      <path id="Path_10261" data-name="Path 10261" d="M314.287,258.9a2.279,2.279,0,0,1-.247-.486,8.4,8.4,0,0,0-.651-1.117.567.567,0,0,0-.55-.214,2.864,2.864,0,0,0-.55.146c-.332.117-.562.081-.558.053s.2-.045.506-.19a2.233,2.233,0,0,1,.579-.2.809.809,0,0,1,.4.02.753.753,0,0,1,.348.251A3.418,3.418,0,0,1,314.287,258.9Z" transform="translate(-243.79 -204.575)" fill="#eb996e"/>
    </g>
    <g id="freepik--speech-bubble--inject-5" transform="translate(215.367 78.997)">
      <path id="Path_10262" data-name="Path 10262" d="M458.285,140.825a2.144,2.144,0,0,0,1.278-1.987,2.023,2.023,0,1,0-4.046-.02,2.148,2.148,0,0,0,1.283,2.023c-3.1.469-2.962,3.84-2.962,3.84l7.335.032S461.36,141.29,458.285,140.825Z" transform="translate(-445.945 -130.38)" fill="#38a8ff"/>
      <path id="Path_10263" data-name="Path 10263" d="M453.493,138.993a1.644,1.644,0,0,0,.449-.089,1.881,1.881,0,0,0,1-.668,1.78,1.78,0,1,0-2.852-.057,1.865,1.865,0,0,0,.967.708c.275.085.445.085.441.105s-.04,0-.117,0a1.421,1.421,0,0,1-.348-.04,1.865,1.865,0,0,1-1.064-.7,1.93,1.93,0,0,1-.267-1.849,1.958,1.958,0,0,1,3.694.073,1.934,1.934,0,0,1-.34,1.837,1.865,1.865,0,0,1-1.088.655,1.444,1.444,0,0,1-.348.024C453.533,139.005,453.493,139,453.493,138.993Z" transform="translate(-444.595 -129.385)" fill="#455a64"/>
      <path id="Path_10264" data-name="Path 10264" d="M449.78,145.782a4.069,4.069,0,0,1,.688-1.1,4,4,0,0,1,.858-.975,4.178,4.178,0,0,1-.688,1.1A4.123,4.123,0,0,1,449.78,145.782Z" transform="translate(-443.529 -134.491)" fill="#455a64"/>
      <path id="Path_10265" data-name="Path 10265" d="M453.572,135.213s.057.073.158.219l.445.635c.4.57.947,1.392,1.667,2.428a.049.049,0,0,1,0,.069.045.045,0,0,1-.028,0h-4.673a.061.061,0,0,1-.061-.057.076.076,0,0,1,0-.032h0l.109.089a10.079,10.079,0,0,1-4.451,2.339,9.622,9.622,0,0,1-2.877.231,9.5,9.5,0,0,1-3.018-.655,10.231,10.231,0,0,1-2.832-1.659A9.939,9.939,0,0,1,435.8,136.2a10.044,10.044,0,1,1,18.571-6.615c.02.15.044.3.065.441s0,.291.024.429c0,.283.036.554.028.809a10.25,10.25,0,0,1-.129,1.412,9.5,9.5,0,0,1-.518,1.889c-.081.206-.15.364-.2.465a1.294,1.294,0,0,1-.077.158,1.2,1.2,0,0,1,.057-.162c.044-.109.105-.267.178-.477a10.114,10.114,0,0,0,.477-1.885,10.305,10.305,0,0,0,.109-1.4c0-.259-.024-.526-.036-.809a2.182,2.182,0,0,0-.028-.425l-.069-.437a9.871,9.871,0,1,0-18.28,6.474,9.767,9.767,0,0,0,2.169,2.573,10.156,10.156,0,0,0,2.763,1.618,9.353,9.353,0,0,0,2.962.651,9.581,9.581,0,0,0,2.832-.214,9.9,9.9,0,0,0,4.4-2.278.073.073,0,0,1,.1,0,.069.069,0,0,1,0,.081h0l-.109-.093a.728.728,0,0,1,.214-.028h2.363l2.12.024-.04.077-1.639-2.484-.4-.647A.47.47,0,0,1,453.572,135.213Z" transform="translate(-434.329 -120.924)" fill="#263238"/>
    </g>
  </g>
</svg>
