<svg xmlns="http://www.w3.org/2000/svg" width="278.971" height="226.262" viewBox="0 0 278.971 226.262">
  <g id="Group_458882" data-name="Group 458882" transform="translate(0)">
    <path id="Path_10311" data-name="Path 10311" d="M749.994,244.551A177.456,177.456,0,0,1,737.942,293.6c-8.007,20.089-18.947,37.784-31.637,51.17l-.7-.614c12.628-13.322,23.518-30.939,31.492-50.945,7.206-18.079,11.492-36.893,12.4-54.4l.9.151Q750.251,241.736,749.994,244.551Z" transform="translate(-527.285 -203.337)" fill="#f2f2f2"/>
    <path id="Path_10312" data-name="Path 10312" d="M736.58,505.749c-17.824,28.356-39.448,48.617-60.889,57.049l-.434-.8c21.293-8.374,42.79-28.531,60.533-56.758Z" transform="translate(-508.099 -371.8)" fill="#f2f2f2"/>
    <path id="Path_10313" data-name="Path 10313" d="M748.818,298.615a177.445,177.445,0,0,1-12.053,49.049c-8.007,20.089-18.947,37.784-31.637,51.17l-.7-.614c12.628-13.322,23.518-30.939,31.492-50.945,7.206-18.079,11.492-36.893,12.4-54.4l.9.151Q749.074,295.8,748.818,298.615Z" transform="translate(-526.541 -237.521)" fill="#f2f2f2"/>
    <path id="Path_10314" data-name="Path 10314" d="M257.668,382.472H245.973a1.655,1.655,0,0,1-1.3-.626,1.621,1.621,0,0,1-.317-1.377,31.8,31.8,0,0,0-.2-14.906,1.658,1.658,0,0,1,.643-1.742c6.013-4.325,10.749-4.2,14.076.374a1.661,1.661,0,0,1,.291.7,52.045,52.045,0,0,1,.146,16.152A1.651,1.651,0,0,1,257.668,382.472Z" transform="translate(-235.485 -280.386)" fill="#e6e6e6"/>
    <path id="Path_10315" data-name="Path 10315" d="M262.771,385.231h-4.023a.839.839,0,1,1,0-1.678h4.023a.839.839,0,1,1,0,1.678Z" transform="translate(-244.214 -294.856)" fill="#fff"/>
    <path id="Path_10316" data-name="Path 10316" d="M262.771,393.231h-4.023a.839.839,0,0,1,0-1.678h4.023a.839.839,0,1,1,0,1.677Z" transform="translate(-244.214 -299.914)" fill="#fff"/>
    <path id="Path_10317" data-name="Path 10317" d="M262.771,401.231h-4.023a.839.839,0,1,1,0-1.678h4.023a.839.839,0,1,1,0,1.678Z" transform="translate(-244.214 -304.972)" fill="#fff"/>
    <path id="Path_10318" data-name="Path 10318" d="M835.668,524.472H823.973a1.655,1.655,0,0,1-1.3-.626,1.621,1.621,0,0,1-.317-1.377,31.8,31.8,0,0,0-.2-14.906,1.658,1.658,0,0,1,.643-1.742c6.013-4.325,10.749-4.2,14.076.374a1.663,1.663,0,0,1,.291.7,52.048,52.048,0,0,1,.146,16.152A1.651,1.651,0,0,1,835.668,524.472Z" transform="translate(-600.949 -370.171)" fill="#e6e6e6"/>
    <path id="Path_10319" data-name="Path 10319" d="M840.771,527.231h-4.023a.839.839,0,0,1,0-1.678h4.023a.839.839,0,0,1,0,1.678Z" transform="translate(-609.678 -384.641)" fill="#fff"/>
    <path id="Path_10320" data-name="Path 10320" d="M840.771,535.231h-4.023a.839.839,0,0,1,0-1.678h4.023a.839.839,0,0,1,0,1.678Z" transform="translate(-609.678 -389.699)" fill="#fff"/>
    <path id="Path_10321" data-name="Path 10321" d="M840.771,543.231h-4.023a.839.839,0,1,1,0-1.678h4.023a.839.839,0,1,1,0,1.678Z" transform="translate(-609.678 -394.758)" fill="#fff"/>
    <path id="Path_10322" data-name="Path 10322" d="M499.635,755.721a.436.436,0,0,1-.438.438H221.1a.438.438,0,1,1,0-.875H499.2a.436.436,0,0,1,.438.438Z" transform="translate(-220.665 -529.897)" fill="#ccc"/>
    <path id="Path_10323" data-name="Path 10323" d="M392.422,660.214l-.729-10.145a32.818,32.818,0,0,0-15.407-3.455c7.513,5.807,6.911,17.414,12.114,25.357a19.739,19.739,0,0,0,14.719,8.722l6.253,3.6a33.076,33.076,0,0,0-7.7-26.6,31.949,31.949,0,0,0-6.019-5.293C394.285,656.319,392.422,660.214,392.422,660.214Z" transform="translate(-319.063 -461.181)" fill="#f2f2f2"/>
    <path id="Path_10324" data-name="Path 10324" d="M750.046,664.214l.729-10.145a32.818,32.818,0,0,1,15.407-3.455c-7.513,5.807-6.911,17.414-12.114,25.357a19.738,19.738,0,0,1-14.719,8.723l-6.252,3.6a33.076,33.076,0,0,1,7.7-26.6,31.944,31.944,0,0,1,6.019-5.293C748.183,660.32,750.046,664.214,750.046,664.214Z" transform="translate(-544.435 -463.711)" fill="#f2f2f2"/>
    <circle id="Ellipse_555" data-name="Ellipse 555" cx="10.5" cy="10.5" r="10.5" transform="translate(125.676 68.536)" fill="#38a8ff"/>
    <path id="Path_10325" data-name="Path 10325" d="M590.952,349.129a.7.7,0,0,0-.965,0,28.635,28.635,0,0,0-4.9,5.009l-1.048-2.028c-.4-.78-1.581-.091-1.178.689l1.533,2.967a.69.69,0,0,0,1.178,0,27.631,27.631,0,0,1,5.384-5.672.687.687,0,0,0,0-.965Z" transform="translate(-450.425 -273.653)" fill="#fff"/>
    <path id="Path_10326" data-name="Path 10326" d="M487.869,371.471l-10.535-16.545,12.2-6.534,3.2,12.623L515.3,373.207a4.878,4.878,0,1,1-2.776,6.637Z" transform="translate(-382.954 -272.624)" fill="#a0616a"/>
    <path id="Path_10327" data-name="Path 10327" d="M455.39,304.566c-3.31,4.86,8.454,22.527,8.454,22.527.573-1.235,6.051,12.637,6.969,11.817,2.608-2.329,6.69-8.816,8.959-9.105,1.3-.165-3.01-9.369-3.01-9.369s-1.969-5.435-4.64-12.377a12.467,12.467,0,0,0-9.055-7.919S458.7,299.706,455.39,304.566Z" transform="translate(-368.708 -242.108)" fill="#33bff8"/>
    <path id="Path_10328" data-name="Path 10328" d="M236.173,567.3h5l2.38-19.3h-7.385Z" transform="translate(-149.329 -346.498)" fill="#a0616a"/>
    <path id="Path_10329" data-name="Path 10329" d="M453.368,734.54h1.408l5.5-2.236,2.947,2.236h0a6.28,6.28,0,0,1,6.279,6.279v.2H453.369Z" transform="translate(-367.801 -515.367)" fill="#2f2e41"/>
    <path id="Path_10330" data-name="Path 10330" d="M299.39,567.3h5l2.381-19.3h-7.385Z" transform="translate(-189.301 -346.498)" fill="#a0616a"/>
    <path id="Path_10331" data-name="Path 10331" d="M516.585,734.54h1.408l5.5-2.236,2.947,2.236h0a6.28,6.28,0,0,1,6.28,6.279v.2H516.585Z" transform="translate(-407.772 -515.367)" fill="#2f2e41"/>
    <path id="Path_10332" data-name="Path 10332" d="M460.65,455.889l-32.545.814c-6.181,3.357-6.275,10.623-4.25,19.25,0,0-.684,5.128.684,6.5s2.051,1.367,1.367,3.76,2.929,6.3,2.49,6.74a17.693,17.693,0,0,0-1.464,2.832l3.418,19.485s2.393,33.843,3.077,34.526,1.367,0,.684,1.709-1.367,1.026-.684,1.709a25.182,25.182,0,0,1,1.709,2.051H443.4s.623-3.419.623-3.76.684-2.393.684-2.735-.6-.946-.6-.946a11.251,11.251,0,0,1-.421-2.131c0-.684-2.051-27.006-2.051-27.006l4.1-34.184,9.914,33.5s0,29.4.684,30.082.684.342.342,1.709-1.709,1.026-.684,2.051,1.367-.684,1.026,1.026l-.342,1.709,10.255.147s1.367-2.881.684-3.907-.643-.746.191-2.424,1.176-2.02.834-2.362-.342-2.16-.342-2.16l-1.709-32.708s-.342-34.526-.342-35.552a3.409,3.409,0,0,1,.284-1.538v-1.392l-1.31-4.933Z" transform="translate(-348.395 -340.592)" fill="#000027"/>
    <circle id="Ellipse_556" data-name="Ellipse 556" cx="10.112" cy="10.112" r="10.112" transform="translate(82.593 27.4)" fill="#a0616a"/>
    <path id="Path_10333" data-name="Path 10333" d="M442.217,281.576a10.438,10.438,0,0,1,4.23,6.1,57.772,57.772,0,0,1,2.483,13.8l.79,14.025,9.786,29.863c-8.481,7.176-40.36,1.631-40.36,1.631s-.979-.326,0-1.3,1.931-.112.953-1.09-.3.112.022-.867,0-.326-.326-.652,2.525-3.262,2.525-3.262l-2.61-17.142L416.448,288.1c3.914-4.893,11.786-7.777,11.786-7.777l2.034-3.661,10.17.814Z" transform="translate(-344.457 -227.269)" fill="#000027"/>
    <path id="Path_10334" data-name="Path 10334" d="M461.256,216.008a4.685,4.685,0,0,1,1.665,2.339,32.912,32.912,0,0,0,.022-4.589c-.119-1.074-.875-1.315-1.751-1.6-.791-.253-1.685-.538-1.925-1.581-3.179-3.092-8.712-2.936-12.5-1.858-2.084.594-3.283,1.356-3.39,1.8l-.022.092-.085.042c-1.606.8-1.919,3.339-1.9,5.325.039,3.742,1.331,7.991,2.059,8.337.039.018.048.011.065,0h0c1.1-.876,2.433.067,3.02.579a10.517,10.517,0,0,1,9.417-8.92,16.51,16.51,0,0,0,2.27-.381,4.778,4.778,0,0,1,1.159-.152A3.3,3.3,0,0,1,461.256,216.008Z" transform="translate(-360.216 -183.868)" fill="#2f2e41"/>
    <path id="Path_10335" data-name="Path 10335" d="M652.74,410.934l19.452-19.753,5.125-15.8-8.247-3.336c-4.086,4.121-8.291,16.736-8.291,16.736L647.5,406.6c-.106.039-.212.081-.316.13a3.93,3.93,0,1,0,5.554,4.2Z" transform="translate(-488.926 -287.581)" fill="#ffb8b8"/>
    <path id="Path_10336" data-name="Path 10336" d="M704.453,344.407l10.43,3.017.039-.008c3.834-.744,6.866-7.115,8.735-12.329a7.206,7.206,0,0,0-3.9-9.03h0a7.221,7.221,0,0,0-7.536,1.149l-5.2,4.478Z" transform="translate(-526.559 -258.133)" fill="#6c63ff"/>
    <path id="Path_10337" data-name="Path 10337" d="M445.288,561.694h-5.609l-2.668-21.634h8.278Z" transform="translate(-276.318 -341.474)" fill="#ffb8b8"/>
    <path id="Path_10338" data-name="Path 10338" d="M652.978,731.941H651.4l-6.164-2.507-3.3,2.506h0a7.04,7.04,0,0,0-7.039,7.039v.229h18.085Z" transform="translate(-482.577 -513.553)" fill="#2f2e41"/>
    <path id="Path_10339" data-name="Path 10339" d="M512.971,561.694h-5.609l-2.668-21.634h8.278Z" transform="translate(-319.113 -341.474)" fill="#ffb8b8"/>
    <path id="Path_10340" data-name="Path 10340" d="M720.661,731.941h-1.579l-6.164-2.507-3.3,2.506h0a7.04,7.04,0,0,0-7.039,7.039v.229h18.086Z" transform="translate(-525.372 -513.553)" fill="#2f2e41"/>
    <path id="Path_10341" data-name="Path 10341" d="M691.168,483.865a59.544,59.544,0,0,1-.982,15.391c-1.637,7.532-1.637,28.744-1.637,28.744l-3.6,41.335-10.806-.982-2.947-69.1-10.479,23.25.982,3.275-1.309.819s.981,6.386.326,6.386a7.823,7.823,0,0,0-2.292.982l1.31,33.729L648.6,567.37l-3.93-47.483,4.257-27.18.328-5.24,1.474.061.75-2.189,1.378-3.766Z" transform="translate(-488.757 -356.832)" fill="#000027"/>
    <path id="Path_10342" data-name="Path 10342" d="M701.87,362.76l.058-.082c3.117-4.364-1.571-14.85-2.278-16.37l2.978-.966-.671-5.7-.318-2.541,2.276-2.276.006-.057,1.31-11.461,1.9-7.613a16.713,16.713,0,0,0-4.744-16.2l-4.4-4.151-5.35-7.916h-8.628l-2.958,5.588a12.575,12.575,0,0,0-9.73,12.839L672,320.511l-2.625,18.247,0,3.3-2.954,3.283.645,3.225-2.248.963-.993,4.632c-.411.542-3.122,4.157-3.122,5.146,0,.148.11.292.345.451,1.848,1.251,12.061,3.8,16.581,1.993,4.815-1.925,23.955.963,24.147.992Z" transform="translate(-498.893 -234.077)" fill="#38a8ff"/>
    <circle id="Ellipse_557" data-name="Ellipse 557" cx="11.426" cy="11.426" r="11.426" transform="translate(176.893 27.943)" fill="#ffb8b8"/>
    <path id="Path_10343" data-name="Path 10343" d="M704.961,235.745a31.069,31.069,0,0,0,5.275-.506c1.724-.4,5.526-3.337,6.562-5.074h0a15.266,15.266,0,0,0,1.484-4.734,13.892,13.892,0,0,0-2.713-10.962A4.39,4.39,0,0,0,713.758,213c-.064-.023-.13-.043-.2-.061a5.415,5.415,0,0,1-2.736-1.6,4.472,4.472,0,0,0-.46-.449,6.67,6.67,0,0,0-2.818-1.325c-1.665-.4-4.047.1-7.08,1.491a7.484,7.484,0,0,1-4.518.256.424.424,0,0,0-.4.147,3,3,0,0,1-2.014.864c-.463.032-.932.686-1.5,1.538-.128.193-.278.419-.387.557l-.022-.259-.255.3a3.634,3.634,0,0,0,1.793,5.876,7.084,7.084,0,0,0,1.431.19c.292.019.595.038.885.081a5.479,5.479,0,0,1,4.162,3.449,1.433,1.433,0,0,0,2.18.64,2.367,2.367,0,0,1,2.146-.448,1.571,1.571,0,0,1,.715.77,2.048,2.048,0,0,0,.8.886c1.19.575,1.34,3.254.976,5.5-.351,2.165-1.114,3.745-1.856,3.841-.571.074-.635.116-.674.219l-.035.092.066.083A2.34,2.34,0,0,0,704.961,235.745Z" transform="translate(-517.736 -184.764)" fill="#2f2e41"/>
    <path id="Path_10344" data-name="Path 10344" d="M624.985,368.252l-5.493-7c-5.594,1.541-15.521,10.389-15.521,10.389l-20.386,8.847a3.928,3.928,0,1,0,2.386,6.364l26.706-7.45Z" transform="translate(-447.24 -280.756)" fill="#ffb8b8"/>
    <path id="Path_10345" data-name="Path 10345" d="M684.765,343.054l8.666-9.661.481-6.845a7.222,7.222,0,0,0-3.584-6.728h0a7.205,7.205,0,0,0-9.572,2.269c-3.062,4.615-6.356,10.855-4.661,14.373l.017.036Z" transform="translate(-508.337 -253.958)" fill="#38a8ff"/>
    <path id="Path_10346" data-name="Path 10346" d="M441.669,402.135,419.145,390.6a3.554,3.554,0,0,1-1.183-4.851l14.686-28.675a3.554,3.554,0,0,1,4.628-1.875L459.8,366.733a3.554,3.554,0,0,1,1.183,4.851L446.3,400.26A3.554,3.554,0,0,1,441.669,402.135Z" transform="translate(-345.116 -276.728)" fill="#e6e6e6"/>
    <path id="Path_10347" data-name="Path 10347" d="M443.8,403.185l-15.3-7.837a3.329,3.329,0,0,1-1.108-4.544l12.2-23.823a3.329,3.329,0,0,1,4.335-1.756l18.483,9.466a3.328,3.328,0,0,1,1.108,4.544l-6.628,12.942C452.924,399.913,450.483,406.608,443.8,403.185Z" transform="translate(-351.095 -283.08)" fill="#fff"/>
    <path id="Path_10348" data-name="Path 10348" d="M469.436,419l-13.554-6.942a.848.848,0,0,1,.765-1.493L470.2,417.51a.848.848,0,0,1-.765,1.493Z" transform="translate(-369.165 -311.908)" fill="#38a8ff"/>
    <path id="Path_10349" data-name="Path 10349" d="M454.866,421.668l-3.093-1.584a.848.848,0,0,1,.765-1.493l3.093,1.584a.848.848,0,0,1-.765,1.493Z" transform="translate(-366.567 -316.981)" fill="#6c63ff"/>
    <path id="Path_10350" data-name="Path 10350" d="M456.236,432.5l-8.572-4.39a.848.848,0,0,1,.765-1.493L457,431a.848.848,0,0,1-.765,1.493Z" transform="translate(-363.969 -322.053)" fill="#38a8ff"/>
    <path id="Path_10351" data-name="Path 10351" d="M484.023,390.521l-13.554-6.942a.848.848,0,0,1,.765-1.493l13.554,6.942a.848.848,0,0,1-.765,1.493Z" transform="translate(-378.388 -293.899)" fill="#38a8ff"/>
    <path id="Path_10352" data-name="Path 10352" d="M469.453,393.186,466.36,391.6a.848.848,0,0,1,.765-1.493l3.093,1.584a.848.848,0,0,1-.765,1.493Z" transform="translate(-375.79 -298.972)" fill="#38a8ff"/>
    <path id="Path_10353" data-name="Path 10353" d="M470.823,404.014l-8.572-4.39a.848.848,0,0,1,.765-1.493l8.572,4.39a.848.848,0,0,1-.765,1.493Z" transform="translate(-373.192 -304.044)" fill="#38a8ff"/>
    <path id="Path_10354" data-name="Path 10354" d="M423.736,378.494l-5.088-18.943,13.6-2.574-.731,13,17.866,18.4a4.878,4.878,0,1,1-4.639,5.5Z" transform="translate(-345.847 -278.052)" fill="#a0616a"/>
    <path id="Path_10355" data-name="Path 10355" d="M411.837,302.214c-4.616,3.644,1.308,24.025,1.308,24.025.917-1.007,1.983,13.87,3.1,13.363,3.186-1.44,9.026-6.4,11.278-6,1.288.232-.061-9.84-.061-9.84s-.248-5.775-.714-13.2a12.466,12.466,0,0,0-6.264-10.27S416.453,298.57,411.837,302.214Z" transform="translate(-340.429 -241.954)" fill="#33bff8"/>
    <path id="Path_10356" data-name="Path 10356" d="M600.679,485.494l-12.291-5.8a1.923,1.923,0,0,1-1.055-1.3,1.883,1.883,0,0,1,.35-1.6,36.985,36.985,0,0,0,7.138-15.537,1.911,1.911,0,0,1,1.872-1.541c6.269.021,10.954,2.31,13.924,6.8a1.934,1.934,0,0,1,.253,1.609,60.493,60.493,0,0,1-7.762,16.7A1.919,1.919,0,0,1,600.679,485.494Z" transform="translate(-452.472 -343.005)" fill="#e6e6e6"/>
    <path id="Path_10357" data-name="Path 10357" d="M616.431,496.879l-9.4-4.438a.975.975,0,0,1,.833-1.763l9.4,4.438a.975.975,0,0,1-.833,1.763Z" transform="translate(-464.608 -362.53)" fill="#fff"/>
    <path id="Path_10358" data-name="Path 10358" d="M620.4,488.471l-9.4-4.438a.975.975,0,1,1,.833-1.763l9.4,4.438a.975.975,0,1,1-.833,1.763Z" transform="translate(-467.118 -357.214)" fill="#fff"/>
    <path id="Path_10359" data-name="Path 10359" d="M412.672,176.539l-.875.1c-3.9-15.328-11.461-25.947-21.865-30.709-13.226-6.054-29.58-1.989-46.05,11.447-16.554,13.5-31.208,34.834-41.263,60.063l-.849-.388c10.1-25.339,24.829-46.772,41.475-60.351,16.73-13.648,33.418-17.743,46.99-11.53C400.938,150.065,408.7,160.913,412.672,176.539Z" transform="translate(-271.947 -142.337)" fill="#f2f2f2"/>
    <path id="Path_10360" data-name="Path 10360" d="M299.123,288.9c-2.288,4.819-4.464,9.812-6.468,14.84-11.532,28.932-17.375,58.48-16.9,85.45l-.9-.1c-.478-27.07,5.383-56.72,16.95-85.742,2.01-5.042,4.192-10.049,6.486-14.882Z" transform="translate(-254.912 -234.735)" fill="#f2f2f2"/>
    <path id="Path_10361" data-name="Path 10361" d="M297.947,342.964c-2.288,4.819-4.464,9.812-6.468,14.84-11.532,28.932-17.375,58.48-16.9,85.45l-.9-.1c-.478-27.07,5.383-56.719,16.95-85.742,2.01-5.042,4.192-10.049,6.486-14.882Z" transform="translate(-254.169 -268.919)" fill="#f2f2f2"/>
    <ellipse id="Ellipse_558" data-name="Ellipse 558" cx="3.257" cy="3.749" rx="3.257" ry="3.749" transform="translate(11.509 79.834) rotate(-56.364)" fill="#ccc"/>
    <ellipse id="Ellipse_559" data-name="Ellipse 559" cx="3.257" cy="3.749" rx="3.257" ry="3.749" transform="translate(223.657 133.914) rotate(-56.364)" fill="#ccc"/>
  </g>
</svg>
