<svg id="uploading_re_okvh" xmlns="http://www.w3.org/2000/svg" width="135.727" height="135.395" viewBox="0 0 135.727 135.395">
  <path id="Path_10286" data-name="Path 10286" d="M727.913,414.836c-3.4,3.818-4,8.938-4.548,14.16-.407,3.863-.781,7.782-2.235,11.275a18.339,18.339,0,0,1-5.676,7.363c-.223.174-.451.343-.683.506h-12.4c-.019-.168-.034-.338-.049-.506a30.97,30.97,0,0,1,4.128-18.227,29.91,29.91,0,0,1,4.629-5.91c1.934,3.377,4.322,6.642,4.322,6.642l-1.079-9.466A30.75,30.75,0,0,1,727.913,414.836Z" transform="translate(-612.599 -354.622)" fill="#f2f2f2"/>
  <path id="Path_10287" data-name="Path 10287" d="M775.106,462.184c-8.257,3.3-10.689,13.918-17.414,19.74a17.714,17.714,0,0,1-2.673,1.9c-.306.179-.617.349-.934.507h-17.85c.043-.168.083-.338.128-.507A31.043,31.043,0,0,1,749.4,465.654c.247-.16.5-.315.747-.464a30.063,30.063,0,0,1,6.031-2.762c.226,3.884.907,7.872.907,7.872l3.256-8.953a30.746,30.746,0,0,1,14.767.836Z" transform="translate(-639.379 -390.816)" fill="#f2f2f2"/>
  <path id="Path_10288" data-name="Path 10288" d="M416.806,569.209a.253.253,0,0,1-.253.253H281.358a.253.253,0,0,1,0-.507H416.553a.252.252,0,0,1,.253.253Z" transform="translate(-281.105 -475.944)" fill="#ccc"/>
  <path id="Path_10289" data-name="Path 10289" d="M562.388,517.544H538.763a8.31,8.31,0,0,1,0-16.619h23.625a8.31,8.31,0,0,1,0,16.619Z" transform="translate(-477.39 -422.39)" fill="#000027"/>
  <path id="Path_10290" data-name="Path 10290" d="M296.957,543.6l3.217,2.3,10.4-11.316-4.749-3.392Z" transform="translate(-233.762 -418.145)" fill="#ffb6b6"/>
  <path id="Path_10291" data-name="Path 10291" d="M566.715,713.7l.906.647,4.563,1.088.868,2.792h0a4.963,4.963,0,0,1,1.153,6.922l-.094.131-10.374-7.411Z" transform="translate(-503.59 -589.883)" fill="#33bff8"/>
  <path id="Path_10292" data-name="Path 10292" d="M610.231,512.529,607.148,508a8.64,8.64,0,0,1,8.341-9.349c2.747-.054,5.432,1.264,6.864,5.719,3.683,11.458-20.989,37.97-20.989,37.97l-5.152-2.625-.49-3.182,2.606-1.919-.223-2.729,2.515-1.458Z" transform="translate(-528.77 -420.596)" fill="#000027"/>
  <path id="Path_10293" data-name="Path 10293" d="M567.38,306.362l3.811,2.9,4.6,1.412s1.9,26.725,3.612,28.437.168,1.758.512,3.982,1.18,6.783,1.18,6.783c-11.555,6.117-21.517,6.281-29.519-.877a1.993,1.993,0,0,1,1.087-2.25c1.489-.79-1.373-4.479-.156-5.1s-.495-5.966-.495-5.966l1.123-11.162-.887-1.784,2.165-10.917,3.757-1.372,1.5-3.616Z" transform="translate(-493.973 -269.232)" fill="#38a8ff"/>
  <circle id="Ellipse_553" data-name="Ellipse 553" cx="7.538" cy="7.538" r="7.538" transform="translate(61.968 20.44)" fill="#ffb6b6"/>
  <path id="Path_10294" data-name="Path 10294" d="M472.033,191.714a3.3,3.3,0,0,1-.793,5l2.4,11.491-5.672-2.246-1.411-10.568a3.321,3.321,0,0,1,5.474-3.68Z" transform="translate(-426.804 -178.072)" fill="#ffb6b6"/>
  <path id="Path_10295" data-name="Path 10295" d="M468.177,232.075,470.47,253.2l.081.04c.067.033,2.973,1.458,6.54,3.156.6.286.515,1.527,1.144,1.823.433.2,1.577-.537,2.015-.332,3.9,1.823,7.841,3.6,9.412,4.077a9.75,9.75,0,0,0,6.482-.209l.05-.023.026-.048a4.948,4.948,0,0,0-1.14-6.083,35.046,35.046,0,0,0-14.311-7.327l-3-.736-3.843-15.047Z" transform="translate(-428.366 -210.754)" fill="#38a8ff"/>
  <path id="Path_10296" data-name="Path 10296" d="M575.416,220.97c.62-1.8,3.706-3.054,8.708-3.228s6.271,5.721,6.271,5.721c3.34,2.709-3.566,9.962-3.9,9.7l.15-1.363c.249-2.257,1.306-4.018-.038-6.37l-1.291.015-2.448.471a.708.708,0,0,1-.6-1.227l.022-.02-.056-.086a7.638,7.638,0,0,1-2.694.818,2.886,2.886,0,0,1-2.728-1.293,2.172,2.172,0,0,1-.244-.827,4.4,4.4,0,0,0-2.085,2.335A27.043,27.043,0,0,1,575.416,220.97Z" transform="translate(-512.05 -199.468)" fill="#2f2e41"/>
  <path id="Path_10297" data-name="Path 10297" d="M411.176,138.083a8.248,8.248,0,0,0-6.859-6c-.036-.005-.069,0-.1,0a.978.978,0,0,0-.14-.034c-7.492-1.019-16.14,2.752-19.263,10.226a7.8,7.8,0,0,0-6.647-3.408,8.2,8.2,0,0,0-7.24,6.141,1.023,1.023,0,0,0,.423,1.094,4.079,4.079,0,0,0,1.712.914q2.041.455,4.1.834,4.011.739,8.063,1.194a113.984,113.984,0,0,0,16.516.657,12.1,12.1,0,0,0,5.289-.977,8.007,8.007,0,0,0,3.034-2.786A9.811,9.811,0,0,0,411.176,138.083Z" transform="translate(-351.785 -131.886)" fill="#3f3d56"/>
  <path id="Path_10298" data-name="Path 10298" d="M413.51,142.711a7.268,7.268,0,0,0-2.324-3.545,7.986,7.986,0,0,0-4.024-1.732h-.089l-.083-.015a.581.581,0,0,0-.081-.019,19.616,19.616,0,0,0-7.378.528c-4.62,1.215-9,4.092-11.038,8.734l-.292.666-.436-.581a7.351,7.351,0,0,0-5.814-3.009c-.111,0-.221,0-.334.008a7.464,7.464,0,0,0-6.7,5.4.523.523,0,0,0,.251.555l.034.026a3.621,3.621,0,0,0,1.483.755c1.322.281,2.666.54,4,.772,2.579.451,5.227.824,7.865,1.107a116.356,116.356,0,0,0,14.054.653q1.031-.013,2.058-.045a11.969,11.969,0,0,0,5.007-.866,7.294,7.294,0,0,0,2.8-2.452A8.315,8.315,0,0,0,413.51,142.711Z" transform="translate(-354.945 -136.118)" fill="#fff"/>
  <path id="Path_10299" data-name="Path 10299" d="M402.6,155.476a116.365,116.365,0,0,1-14.054-.653c-2.639-.283-5.286-.655-7.865-1.107-1.33-.232-2.675-.492-4-.772a3.621,3.621,0,0,1-1.483-.755l-.034-.026a.523.523,0,0,1-.251-.555,7.465,7.465,0,0,1,6.7-5.4c.113-.006.223-.009.334-.009a7.351,7.351,0,0,1,5.814,3.009l.436.581.292-.666c2.043-4.641,6.418-7.519,11.038-8.734a3.414,3.414,0,0,1,1.192,3.333c-.411,1.453-2.037,2.36-2.309,3.845-.249,1.356.721,2.615,1.72,3.565s2.154,1.9,2.443,3.243A2.974,2.974,0,0,1,402.6,155.476Z" transform="translate(-354.945 -138.577)" fill="#38a8ff"/>
  <circle id="Ellipse_554" data-name="Ellipse 554" cx="3.831" cy="3.831" r="3.831" transform="translate(47.837 5.107)" fill="#38a8ff"/>
  <path id="Path_10300" data-name="Path 10300" d="M519.3,166.392l-1.436-1.437a.239.239,0,0,0-.339,0l-1.437,1.437a.239.239,0,0,0,.339.339l1.028-1.028v2.774a.239.239,0,1,0,.479,0V165.7l1.028,1.028a.239.239,0,0,0,.339-.339Z" transform="translate(-466.028 -157.863)" fill="#fff"/>
  <path id="Path_10301" data-name="Path 10301" d="M340.493,531.38l-3.018,2.555-11.292-10.423,4.454-3.771Z" transform="translate(-256.769 -409.136)" fill="#ffb6b6"/>
  <path id="Path_10302" data-name="Path 10302" d="M649.059,702.539l-9.73,8.239-.1-.123a4.963,4.963,0,0,1,.58-6.994h0l.636-2.854,4.458-1.459.849-.719Z" transform="translate(-562.089 -578.021)" fill="#33bff8"/>
  <path id="Path_10303" data-name="Path 10303" d="M538.238,518.888l2.494-5.409a8.64,8.64,0,0,0-9.082-8.631c-2.742.172-5.31,1.706-6.371,6.265-2.728,11.722,24.04,36.115,24.04,36.115l4.919-3.04.227-3.211-2.755-1.7,0-2.739-2.626-1.246Z" transform="translate(-473.164 -425.465)" fill="#000027"/>
  <path id="Path_10304" data-name="Path 10304" d="M577.782,447.11V428.32a1.436,1.436,0,0,1,1.434-1.434h14.19a1.436,1.436,0,0,1,1.434,1.434v18.79a1.436,1.436,0,0,1-1.434,1.434h-14.19a1.436,1.436,0,0,1-1.434-1.434Z" transform="translate(-514.647 -364.107)" fill="#e6e6e6"/>
  <path id="Path_10305" data-name="Path 10305" d="M582.9,445.6v-12.08a1.345,1.345,0,0,1,1.343-1.343h12.2a1.345,1.345,0,0,1,1.343,1.343v16.72a1.345,1.345,0,0,1-1.343,1.343h-7.555A5.991,5.991,0,0,1,582.9,445.6Z" transform="translate(-518.673 -368.272)" fill="#fff"/>
  <path id="Path_10306" data-name="Path 10306" d="M592.176,449.471a1.314,1.314,0,0,1,1.313-1.313h8.46a1.313,1.313,0,0,1,0,2.625h-8.46A1.314,1.314,0,0,1,592.176,449.471Z" transform="translate(-525.977 -380.853)" fill="#e6e6e6"/>
  <path id="Path_10307" data-name="Path 10307" d="M592.176,468.662a1.314,1.314,0,0,1,1.313-1.313h8.46a1.313,1.313,0,0,1,0,2.625h-8.46a1.314,1.314,0,0,1-1.313-1.313Z" transform="translate(-525.977 -395.96)" fill="#e6e6e6"/>
  <path id="Path_10308" data-name="Path 10308" d="M592.176,487.854a1.314,1.314,0,0,1,1.313-1.313h8.46a1.313,1.313,0,0,1,0,2.625h-8.46A1.314,1.314,0,0,1,592.176,487.854Z" transform="translate(-525.977 -411.068)" fill="#e6e6e6"/>
  <path id="Path_10309" data-name="Path 10309" d="M637.259,478.419a3.3,3.3,0,0,1,3.766-3.387l5.37-10.439,2.992,5.316-5.558,9.1a3.321,3.321,0,0,1-6.57-.588Z" transform="translate(-561.465 -393.79)" fill="#ffb6b6"/>
  <path id="Path_10310" data-name="Path 10310" d="M656.95,367.087l11.519-17.853-.038-.082c-.043-.094-2.652-5.728-5.179-10.888-.389-.795-.777-1.578-1.152-2.328q-.243-.486-.479-.951c-1.062-2.093-1.989-3.823-2.543-4.644a9.75,9.75,0,0,0-5.167-3.919l-.053-.014-.051.021a4.948,4.948,0,0,0-2.945,5.443,35.047,35.047,0,0,0,6.5,14.7l1.867,2.461-6.489,14.109Z" transform="translate(-572.112 -285.012)" fill="#38a8ff"/>
</svg>
